<?xml version="1.0" encoding="utf-8"?>
<!-- Generator: Adobe Illustrator 23.0.6, SVG Export Plug-In . SVG Version: 6.00 Build 0)  -->
<svg version="1.1" id="Layer_1" xmlns="http://www.w3.org/2000/svg" xmlns:xlink="http://www.w3.org/1999/xlink" x="0px" y="0px"
	 viewBox="0 0 37.93 34.97" style="enable-background:new 0 0 37.93 34.97;" xml:space="preserve">
<g>
	<path d="M33.44,16.98c1.31,0,2.63,0.1,3.92,0.29c0.27,0.04,0.53-0.15,0.57-0.42c0.04-0.27-0.15-0.53-0.42-0.57
		c-1.16-0.17-2.35-0.25-3.53-0.28v-3.01c1.77-0.43,3.09-3.11,3.09-6.46c0-3.66-1.58-6.53-3.59-6.53c-2.02,0-3.6,2.87-3.6,6.53
		c0,3.35,1.32,6.03,3.1,6.46v3.01c-2.2,0.04-4.36,0.34-6.44,0.88c0,0,0-0.01,0-0.01V6.8l1.49,2.56c0.09,0.16,0.26,0.25,0.43,0.25
		c0.09,0,0.17-0.02,0.25-0.07c0.24-0.14,0.32-0.45,0.18-0.68l-1.88-3.22c-0.06-0.1-0.15-0.18-0.26-0.22l-7.62-2.77
		c-0.11-0.04-0.23-0.04-0.34,0l-7.62,2.77c-0.11,0.04-0.2,0.12-0.26,0.22L9.04,8.86C8.9,9.09,8.98,9.4,9.22,9.54
		C9.45,9.68,9.76,9.6,9.9,9.36l1.49-2.56v10.06c-1.99-0.51-4.04-0.8-6.11-0.86v-3.02c1.77-0.43,3.09-3.11,3.09-6.46
		C8.38,2.87,6.8,0,4.78,0c-2.02,0-3.6,2.87-3.6,6.53c0,3.35,1.32,6.03,3.1,6.46v3c-1.29,0.01-2.59,0.1-3.85,0.29
		c-0.27,0.04-0.46,0.29-0.42,0.57c0.04,0.27,0.3,0.46,0.57,0.42c1.29-0.19,2.61-0.29,3.92-0.29c4.79,0,9.45,1.29,13.55,3.7
		c-0.61,0.41-1.21,0.84-1.78,1.29c-1.3-0.72-2.53-1.27-4.09-1.78c-0.26-0.09-0.54,0.06-0.63,0.32c-0.09,0.26,0.06,0.54,0.32,0.63
		c1.35,0.44,2.45,0.92,3.57,1.51c-0.53,0.45-1.05,0.93-1.55,1.42c-2.94-1.41-6.1-2.12-9.39-2.12c-1.35,0-2.69,0.12-4,0.37
		c-0.27,0.05-0.45,0.31-0.4,0.58c0.05,0.27,0.31,0.45,0.58,0.4c1.25-0.23,2.53-0.35,3.82-0.35c3.02,0,5.93,0.64,8.64,1.88
		c-0.46,0.49-0.9,1-1.33,1.53c-0.15-0.06-0.29-0.12-0.47-0.19c-0.76-0.3-1.55-0.55-2.34-0.75c-0.91-0.23-1.85-0.38-2.79-0.47
		c-0.26-0.02-0.52,0.18-0.54,0.45c-0.02,0.28,0.18,0.52,0.45,0.54c0.89,0.08,1.78,0.23,2.64,0.44c0.75,0.18,1.5,0.42,2.22,0.71
		c0.08,0.03,0.14,0.05,0.2,0.08c-0.4,0.53-0.77,1.07-1.13,1.63c-3-1.11-6.34-1.3-9.45-0.52c-0.27,0.07-0.43,0.34-0.36,0.61
		c0.07,0.27,0.33,0.43,0.61,0.36c2.85-0.72,5.91-0.56,8.67,0.43c-0.84,1.42-1.57,2.91-2.15,4.49c-0.09,0.26,0.04,0.55,0.3,0.64
		c0.06,0.02,0.12,0.03,0.17,0.03c0.2,0,0.39-0.13,0.47-0.33C12.15,24.02,22.26,16.98,33.44,16.98z M16.13,18.53v-4.11l2.18,2.18
		l-2.01,2.01C16.24,18.59,16.18,18.56,16.13,18.53z M16.9,13.79h4.22l-2.11,2.11L16.9,13.79z M21.81,14.52v4.05
		c-0.03,0.01-0.06,0.03-0.09,0.04l-2-2L21.81,14.52z M30.88,6.53c0-3.31,1.34-5.53,2.6-5.53c1.25,0,2.59,2.22,2.59,5.53
		c0,2.87-1.01,4.91-2.09,5.41V6.45c0-0.28-0.22-0.5-0.5-0.5s-0.5,0.22-0.5,0.5v5.49C31.89,11.44,30.88,9.39,30.88,6.53z M18.97,3.65
		l6.57,2.39v3.45H12.39V6.04L18.97,3.65z M12.39,16.95v-6.46h13.14v6.36c0,0.1,0.04,0.19,0.09,0.27c-0.96,0.28-1.9,0.61-2.82,0.99
		v-5.33h-7.68v5.31c-0.91-0.38-1.83-0.71-2.77-0.99C12.38,17.06,12.39,17.01,12.39,16.95z M2.19,6.53C2.19,3.22,3.53,1,4.78,1
		c1.25,0,2.59,2.22,2.59,5.53c0,2.87-1.01,4.91-2.09,5.41V6.45c0-0.28-0.22-0.5-0.5-0.5s-0.5,0.22-0.5,0.5v5.49
		C3.2,11.44,2.19,9.39,2.19,6.53z M17.25,19.08l1.77-1.77l1.75,1.75c-0.6,0.31-1.2,0.64-1.78,1C18.42,19.71,17.84,19.39,17.25,19.08
		z"/>
	<path d="M37.47,19.29c-1.32-0.22-2.68-0.33-4.03-0.33c-4.56,0-9.01,1.25-12.88,3.61c-0.24,0.14-0.31,0.45-0.17,0.69
		c0.09,0.15,0.26,0.24,0.43,0.24c0.09,0,0.18-0.02,0.26-0.07c3.71-2.27,7.98-3.47,12.36-3.47c1.3,0,2.6,0.11,3.87,0.32
		c0.28,0.05,0.53-0.14,0.58-0.41S37.75,19.34,37.47,19.29z"/>
	<path d="M17.5,26.11c0.2-0.19,0.22-0.5,0.03-0.71s-0.5-0.22-0.71-0.03c-1.34,1.21-2.54,2.57-3.58,4.04
		c-0.16,0.23-0.11,0.54,0.12,0.7c0.09,0.06,0.19,0.09,0.29,0.09c0.16,0,0.31-0.07,0.41-0.21C15.06,28.58,16.21,27.27,17.5,26.11z"/>
	<path d="M37.44,22.31c-1.31-0.24-2.65-0.37-4-0.37c-8.38,0-15.89,4.68-19.59,12.21c-0.12,0.25-0.02,0.55,0.23,0.67
		c0.07,0.04,0.15,0.05,0.22,0.05c0.18,0,0.36-0.1,0.45-0.28c3.53-7.19,10.69-11.65,18.69-11.65c1.28,0,2.57,0.12,3.82,0.35
		c0.26,0.05,0.53-0.13,0.58-0.4C37.89,22.62,37.71,22.36,37.44,22.31z"/>
	<path d="M37.39,25.3c-2.63-0.57-5.42-0.56-8.04,0.03c-0.27,0.06-0.44,0.33-0.38,0.6c0.05,0.23,0.26,0.39,0.49,0.39
		c0.04,0,0.07,0,0.11-0.01c2.48-0.55,5.13-0.57,7.61-0.02c0.27,0.06,0.54-0.11,0.59-0.38S37.66,25.36,37.39,25.3z"/>
	<path d="M22.91,29.34c1.32-0.98,2.77-1.77,4.3-2.34c0.26-0.1,0.39-0.39,0.29-0.64c-0.1-0.26-0.39-0.39-0.64-0.29
		c-1.62,0.61-3.15,1.44-4.55,2.47c-0.22,0.16-0.27,0.48-0.1,0.7c0.1,0.13,0.25,0.2,0.4,0.2C22.71,29.44,22.82,29.41,22.91,29.34z"/>
	<path d="M20.96,30.31c-0.19-0.19-0.51-0.2-0.71,0c-1.16,1.16-2.17,2.46-2.99,3.87c-0.14,0.24-0.06,0.54,0.18,0.68
		c0.08,0.05,0.17,0.07,0.25,0.07c0.17,0,0.34-0.09,0.43-0.25c0.78-1.34,1.73-2.57,2.83-3.66C21.15,30.82,21.15,30.5,20.96,30.31z"/>
	<path d="M37.34,28.28c-1.27-0.32-2.58-0.48-3.9-0.48c-5.06,0-9.71,2.32-12.75,6.37c-0.17,0.22-0.12,0.53,0.1,0.7
		c0.09,0.07,0.2,0.1,0.3,0.1c0.15,0,0.3-0.07,0.4-0.2c2.86-3.8,7.21-5.97,11.96-5.97c1.24,0,2.47,0.15,3.66,0.45
		c0.27,0.07,0.54-0.1,0.61-0.36C37.77,28.62,37.61,28.35,37.34,28.28z"/>
	<path d="M0.63,20.28c2.8-0.46,5.74-0.42,8.53,0.14c0.03,0.01,0.07,0.01,0.1,0.01c0.23,0,0.44-0.16,0.49-0.4
		c0.05-0.27-0.12-0.53-0.39-0.59c-2.91-0.58-5.97-0.63-8.89-0.15c-0.27,0.04-0.46,0.3-0.41,0.58C0.1,20.14,0.35,20.33,0.63,20.28z"
		/>
	<path d="M0.65,26.29c0.04,0,0.07,0,0.11-0.01c0.85-0.19,1.72-0.31,2.59-0.36c0.28-0.02,0.48-0.26,0.47-0.53
		C3.8,25.1,3.55,24.9,3.28,24.91c-0.92,0.06-1.84,0.19-2.74,0.38c-0.27,0.06-0.44,0.33-0.38,0.6C0.21,26.13,0.42,26.29,0.65,26.29z"
		/>
	<path d="M18.87,8.79c1.04,0,1.89-0.85,1.89-1.89c0-1.04-0.85-1.89-1.89-1.89s-1.89,0.85-1.89,1.89
		C16.98,7.94,17.83,8.79,18.87,8.79z M18.87,6c0.49,0,0.89,0.4,0.89,0.89c0,0.49-0.4,0.89-0.89,0.89c-0.49,0-0.89-0.4-0.89-0.89
		C17.98,6.4,18.38,6,18.87,6z"/>
</g>
</svg>
