<?xml version="1.0" encoding="utf-8"?>
<!-- Generator: Adobe Illustrator 23.0.6, SVG Export Plug-In . SVG Version: 6.00 Build 0)  -->
<svg version="1.1" id="Layer_1" xmlns="http://www.w3.org/2000/svg" xmlns:xlink="http://www.w3.org/1999/xlink" x="0px" y="0px"
	 viewBox="0 0 38.14 37.65" style="enable-background:new 0 0 38.14 37.65;" xml:space="preserve">
<g>
	<path d="M30.46,11.48C27.91,7.86,23.74,5.7,19.31,5.7c-2.42,0-4.79,0.64-6.87,1.85C12.21,7.69,12.13,8,12.27,8.24
		c0.14,0.24,0.45,0.32,0.68,0.18c1.92-1.12,4.12-1.72,6.36-1.72c4.1,0,7.96,2,10.33,5.36c0.1,0.14,0.25,0.21,0.41,0.21
		c0.1,0,0.2-0.03,0.29-0.09C30.57,12.02,30.62,11.71,30.46,11.48z"/>
	<path d="M9.6,9.77c-1.23,1.25-2.2,2.7-2.87,4.31c-0.11,0.25,0.01,0.55,0.27,0.65c0.06,0.03,0.13,0.04,0.19,0.04
		c0.2,0,0.38-0.12,0.46-0.31c0.63-1.49,1.52-2.84,2.66-4c0.19-0.2,0.19-0.51-0.01-0.71C10.11,9.57,9.79,9.57,9.6,9.77z"/>
	<path d="M38.14,19.97c0-0.28-0.22-0.5-0.5-0.5h-2.36c0-0.08,0.01-0.15,0.01-0.23c0-8.67-6.94-15.73-15.56-15.95V1h1.21
		c0.28,0,0.5-0.22,0.5-0.5S21.22,0,20.94,0h-3.5c-0.28,0-0.5,0.22-0.5,0.5S17.16,1,17.44,1h1.29v2.29
		C10.19,3.6,3.34,10.62,3.34,19.23c0,0.08,0,0.16,0.01,0.23H1.31c-0.28,0-0.5,0.22-0.5,0.5c0,2.43,1.98,4.41,4.41,4.41h4.4
		C9.29,24.68,9,25.05,8.8,25.48L8,27.19v-1.12c0-0.28-0.22-0.5-0.5-0.5h-7c-0.28,0-0.5,0.22-0.5,0.5s0.22,0.5,0.5,0.5H7v10.08H0.5
		c-0.28,0-0.5,0.22-0.5,0.5s0.22,0.5,0.5,0.5h7c0.28,0,0.5-0.22,0.5-0.5v-2.11l15.3,0c0.02,0,0.05,0,0.09,0
		c0.2,0,0.58-0.03,0.88-0.23l8.93-7.61c0.58-0.37,0.92-1.01,0.92-1.71c0-0.4-0.12-0.79-0.34-1.13
		C36.19,24.34,38.14,22.38,38.14,19.97z M4.34,19.23c0-8.26,6.72-14.98,14.98-14.98c8.26,0,14.97,6.72,14.97,14.98
		c0,0.08,0,0.16-0.01,0.23H4.34C4.34,19.39,4.34,19.31,4.34,19.23z M22.06,24.38H30l-6.83,4.54H15.8v-0.05
		c0-0.72,0.59-1.31,1.31-1.31h3.14c1.07,0,2-0.74,2.15-1.73C22.47,25.31,22.35,24.8,22.06,24.38z M9.71,25.9
		c0.41-0.88,1.3-1.45,2.28-1.45h8.39c0.3,0,0.59,0.13,0.79,0.36c0.2,0.24,0.29,0.54,0.24,0.85c-0.08,0.5-0.58,0.88-1.16,0.88h-3.14
		c-1.27,0-2.3,1.03-2.31,2.3H8.33L9.71,25.9z M32.6,26.41l-8.91,7.6c-0.05,0.02-0.22,0.04-0.37,0.03H8.09v-4.13h15.24
		c0.1,0,0.19-0.03,0.28-0.08l7.85-5.22c0,0,0,0,0,0c0.24-0.16,0.52-0.22,0.81-0.16c0.28,0.06,0.52,0.21,0.67,0.45
		c0.12,0.18,0.18,0.39,0.18,0.6C33.12,25.85,32.95,26.18,32.6,26.41z M33.73,23.38H5.22c-1.71,0-3.13-1.27-3.37-2.91H37.1
		C36.86,22.11,35.44,23.38,33.73,23.38z"/>
	<path d="M25.1,21.26H4.57c-0.28,0-0.5,0.22-0.5,0.5s0.22,0.5,0.5,0.5H25.1c0.28,0,0.5-0.22,0.5-0.5S25.37,21.26,25.1,21.26z"/>
	<path d="M6.13,33.08c0-1.17-0.96-2.13-2.13-2.13s-2.13,0.96-2.13,2.13S2.83,35.21,4,35.21S6.13,34.26,6.13,33.08z M2.87,33.08
		c0-0.62,0.51-1.13,1.13-1.13s1.13,0.51,1.13,1.13S4.62,34.21,4,34.21S2.87,33.71,2.87,33.08z"/>
</g>
</svg>
