<?xml version="1.0" encoding="utf-8"?>
<!-- Generator: Adobe Illustrator 23.0.6, SVG Export Plug-In . SVG Version: 6.00 Build 0)  -->
<svg version="1.1" id="Layer_1" xmlns="http://www.w3.org/2000/svg" xmlns:xlink="http://www.w3.org/1999/xlink" x="0px" y="0px"
	 viewBox="0 0 32.38 39.47" style="enable-background:new 0 0 32.38 39.47;" xml:space="preserve">
<g>
	<path d="M11.65,3.58c-2.62,0-4.74,1.95-4.74,4.34v0.79c0,0.28,0.22,0.5,0.5,0.5s0.5-0.22,0.5-0.5V7.92c0-1.84,1.68-3.34,3.74-3.34
		c0.28,0,0.5-0.22,0.5-0.5S11.93,3.58,11.65,3.58z"/>
	<path d="M20.54,3.58c-0.28,0-0.5,0.22-0.5,0.5s0.22,0.5,0.5,0.5c2.06,0,3.74,1.5,3.74,3.34v0.79c0,0.28,0.22,0.5,0.5,0.5
		s0.5-0.22,0.5-0.5V7.92C25.28,5.52,23.15,3.58,20.54,3.58z"/>
	<path d="M8.92,22.76c-3.39,0-6.15,2.47-6.15,5.5v1.24c0,0.28,0.22,0.5,0.5,0.5s0.5-0.22,0.5-0.5v-1.24c0-2.48,2.31-4.5,5.15-4.5
		c0.28,0,0.5-0.22,0.5-0.5S9.19,22.76,8.92,22.76z"/>
	<path d="M23.36,23.76c2.84,0,5.15,2.02,5.15,4.5v1.24c0,0.28,0.22,0.5,0.5,0.5s0.5-0.22,0.5-0.5v-1.24c0-3.03-2.76-5.5-6.15-5.5
		c-0.28,0-0.5,0.22-0.5,0.5S23.08,23.76,23.36,23.76z"/>
	<path d="M31.17,30.75v-3.08c0-1.98-0.88-3.76-2.26-4.99V19.5h2.55c0.28,0,0.5-0.22,0.5-0.5v-3.79c0-0.28-0.22-0.5-0.5-0.5h-2.55
		V0.5c0-0.28-0.22-0.5-0.5-0.5H3.81c-0.28,0-0.5,0.22-0.5,0.5v14.21H0.7c-0.28,0-0.5,0.22-0.5,0.5V19c0,0.28,0.22,0.5,0.5,0.5h2.61
		v3.14C1.9,23.86,1,25.66,1,27.67v3.2c-0.6,0.35-1,1-1,1.74v0.9c0,1.12,0.91,2.03,2.03,2.03h0.22v2.21c0,0.95,0.73,1.72,1.62,1.72
		h3.07c0.89,0,1.62-0.77,1.62-1.72v-2.21h1.42v2c0,0.28,0.22,0.5,0.5,0.5h11.29c0.28,0,0.5-0.22,0.5-0.5v-2h1.53v2.21
		c0,0.95,0.73,1.72,1.62,1.72h3.07c0.89,0,1.62-0.77,1.62-1.72v-2.21h0.22c1.12,0,2.03-0.91,2.03-2.03v-0.9
		C32.38,31.78,31.88,31.07,31.17,30.75z M12.29,34.54v-2.96h7.69v2.96H12.29z M21.29,30.36H10.99v-5.84h10.29V30.36z M27.91,21.96
		c-0.23-0.14-0.47-0.27-0.72-0.38c0.01-0.04,0.02-0.07,0.02-0.11V19.5h0.7V21.96z M5.95,9.62v-2.4c0-2.25,1.83-4.08,4.08-4.08h12.12
		c2.25,0,4.08,1.83,4.08,4.08v2.4H5.95z M26.21,13.17v7.8h-9.63v-7.8H26.21z M5.95,12.12v-1.49h20.27v1.49H5.95z M5.94,13.17h9.64
		v7.8H5.94V13.17z M27.26,18.5v-2.79h0.65v2.79H27.26z M30.96,15.71v2.79h-2.05v-2.79H30.96z M4.31,1h23.6v13.71h-0.7V12.7
		c0-0.03,0.02-0.05,0.02-0.08v-2.47c0-0.01,0.01-0.02,0.01-0.03v-2.9c0-2.8-2.28-5.08-5.08-5.08H10.04c-2.8,0-5.08,2.28-5.08,5.08
		v2.9c0,0,0,0.01,0,0.01c0,0,0,0,0,0v2.49c0,0,0,0,0,0c0,0.02-0.01,0.03-0.01,0.05v2.04H4.31V1z M4.9,15.71v2.79H4.31v-2.79H4.9z
		 M1.2,18.5v-2.79h2.11v2.79H1.2z M4.31,19.5h0.63v1.97c0,0.04,0.01,0.08,0.02,0.11c-0.23,0.1-0.44,0.21-0.65,0.34V19.5z M2,27.67
		c0-3.12,2.54-5.67,5.67-5.67H24.5c3.12,0,5.67,2.54,5.67,5.67v2.74h-7.88v-6.4c0-0.28-0.22-0.5-0.5-0.5H10.49
		c-0.28,0-0.5,0.22-0.5,0.5v6.4H2V27.67z M1,33.51v-0.9c0-0.57,0.46-1.03,1.03-1.03h9.26v2.96H2.03C1.46,34.54,1,34.08,1,33.51z
		 M7.57,37.76c0,0.4-0.28,0.72-0.62,0.72H3.88c-0.34,0-0.62-0.32-0.62-0.72v-2.21h4.31V37.76z M21.29,37.04H10.99v-1.5h10.29V37.04z
		 M29.13,37.76c0,0.4-0.28,0.72-0.62,0.72h-3.07c-0.34,0-0.62-0.32-0.62-0.72v-2.21h4.31V37.76z M31.38,33.51
		c0,0.57-0.46,1.03-1.03,1.03h-9.37v-2.96h9.37c0.57,0,1.03,0.46,1.03,1.03V33.51z"/>
	<path d="M11.85,26.86h8.59c0.28,0,0.5-0.22,0.5-0.5s-0.22-0.5-0.5-0.5h-8.59c-0.28,0-0.5,0.22-0.5,0.5S11.57,26.86,11.85,26.86z"/>
	<path d="M11.85,29.46h8.63c0.28,0,0.5-0.22,0.5-0.5s-0.22-0.5-0.5-0.5h-8.63c-0.28,0-0.5,0.22-0.5,0.5S11.57,29.46,11.85,29.46z"/>
	<path d="M7.29,13.58c-0.28,0-0.5,0.22-0.5,0.5v5.8c0,0.28,0.22,0.5,0.5,0.5s0.5-0.22,0.5-0.5v-5.8
		C7.79,13.81,7.56,13.58,7.29,13.58z"/>
	<path d="M25.21,20.39c0.28,0,0.5-0.22,0.5-0.5v-5.8c0-0.28-0.22-0.5-0.5-0.5s-0.5,0.22-0.5,0.5v5.8
		C24.71,20.16,24.93,20.39,25.21,20.39z"/>
	<path d="M10,32.64H2.45c-0.28,0-0.5,0.22-0.5,0.5s0.22,0.5,0.5,0.5H10c0.28,0,0.5-0.22,0.5-0.5S10.28,32.64,10,32.64z"/>
	<path d="M29.66,32.64h-7.55c-0.28,0-0.5,0.22-0.5,0.5s0.22,0.5,0.5,0.5h7.55c0.28,0,0.5-0.22,0.5-0.5S29.93,32.64,29.66,32.64z"/>
</g>
</svg>
