<?xml version="1.0" encoding="utf-8"?>
<!-- Generator: Adobe Illustrator 23.0.6, SVG Export Plug-In . SVG Version: 6.00 Build 0)  -->
<svg version="1.1" id="Layer_1" xmlns="http://www.w3.org/2000/svg" xmlns:xlink="http://www.w3.org/1999/xlink" x="0px" y="0px"
	 viewBox="0 0 57.41 45.05" style="enable-background:new 0 0 57.41 45.05;" xml:space="preserve">
<style type="text/css">
	.st0{fill:#3F494C;}
</style>
<g>
	<path class="st0" d="M56.65,14.89c-0.89-0.8-2.31-0.71-3.22,0.19l-0.18,0.18l-0.97-0.95l0.16-0.16c0.09-0.09,0.15-0.22,0.15-0.36
		s-0.05-0.26-0.15-0.36L41.48,2.62c-0.08-0.07-0.85-0.67-1.5-0.77L28.22,0.03c-1.12-0.17-2.21,0.4-2.72,1.43
		c-0.48,0.96-0.31,2.05,0.42,2.77l9.06,8.85l0.06-0.05l0.26,0.26l0.01-0.01l0.44,0.44l-7.57,7.57l-7.33-7.18
		c0.45-1.56,0.51-3.22,0.18-4.96c-0.68-3.57-3.21-6.49-6.61-7.63c-2.64-0.88-5.31-0.84-7.72,0.1C6.33,1.77,6.07,2.09,5.99,2.48
		C5.91,2.86,6.03,3.26,6.31,3.53l5.16,5.06c0.32,0.31,0.49,0.73,0.49,1.17c0,0.44-0.18,0.86-0.49,1.17l-1.13,1.1
		c-0.66,0.66-1.75,0.66-2.43,0L2.69,6.91C2.42,6.65,2.03,6.53,1.66,6.61C1.29,6.68,0.97,6.94,0.82,7.29
		c-0.69,1.59-0.95,3.37-0.76,5.15c0.51,4.84,4.62,8.81,9.57,9.24c1.39,0.12,2.74-0.01,4.02-0.38l7.34,7.19l-7.74,7.74
		c-0.93,0.93-1.44,2.17-1.44,3.48c0,1.31,0.51,2.55,1.44,3.48c0.93,0.93,2.17,1.44,3.48,1.44c1.31,0,2.55-0.51,3.48-1.44l7.81-7.81
		l8.37,8.19c0.97,0.95,2.26,1.47,3.63,1.47c1.89,0,3.58-0.98,4.52-2.63c1.02-1.78,0.56-4.57-1-6.1l-8.32-8.14l7.47-7.47l1.19,1.18
		c0.2,0.19,0.51,0.19,0.7,0l0.17-0.17l0.98,0.97l-0.29,0.29c-0.47,0.46-0.71,1.09-0.66,1.74c0.04,0.65,0.37,1.25,0.9,1.65
		c0.38,0.29,0.85,0.43,1.32,0.43c0.62,0,1.26-0.25,1.74-0.73l7.99-7.9c0.43-0.41,0.68-0.99,0.68-1.59
		C57.41,15.92,57.14,15.32,56.65,14.89z M26.4,1.91c0.25-0.49,0.83-1.03,1.67-0.89l11.76,1.82c0.27,0.04,0.76,0.35,0.98,0.53
		l1.51,1.49l-7.08,7.08l-8.61-8.42C25.98,2.89,26.29,2.13,26.4,1.91z M19.5,42.48c-1.48,1.48-4.07,1.48-5.55,0
		c-0.74-0.74-1.15-1.73-1.15-2.77s0.41-2.03,1.15-2.77l7.75-7.75l2.61,2.56l-7.32,7.32c-0.2,0.2-0.2,0.51,0,0.71
		c0.1,0.1,0.23,0.15,0.35,0.15s0.26-0.05,0.35-0.15l7.33-7.33l2.28,2.23L19.5,42.48z M43.67,41.92c-0.76,1.33-2.12,2.12-3.65,2.12
		c-1.11,0-2.15-0.42-2.93-1.19L14.13,20.38c-0.09-0.09-0.22-0.14-0.35-0.14c-0.05,0-0.1,0.01-0.16,0.02
		c-1.24,0.4-2.56,0.55-3.91,0.43c-4.48-0.39-8.2-3.98-8.66-8.35C0.88,10.7,1.11,9.14,1.74,7.68C1.77,7.62,1.82,7.6,1.85,7.59
		c0.04-0.01,0.09-0.01,0.14,0.04l5.23,5.12c1.06,1.04,2.78,1.04,3.83,0l1.13-1.1c0.51-0.5,0.79-1.17,0.79-1.89
		c0-0.72-0.28-1.39-0.79-1.89L7.01,2.82c-0.05-0.05-0.05-0.1-0.04-0.14C6.97,2.65,7,2.59,7.07,2.56c2.19-0.86,4.63-0.89,7.04-0.08
		c3.06,1.02,5.33,3.65,5.94,6.86c0.32,1.68,0.24,3.28-0.24,4.76c-0.02,0.05-0.02,0.11-0.02,0.16c0,0.13,0.05,0.26,0.15,0.36
		l22.9,22.42C44.08,38.24,44.47,40.53,43.67,41.92z M32.23,25.24l5.44-5.44c0.2-0.2,0.2-0.51,0-0.71s-0.51-0.2-0.71,0l-5.45,5.45
		l-2.61-2.56l7.56-7.56l0.04,0.04L41.98,20l-7.48,7.48L32.23,25.24z M42.99,19.58c-0.03-0.04-0.05-0.09-0.08-0.12l-5.63-5.63
		l-1.25-1.26l7.01-7.01l8.33,8.24l-0.16,0.16c-0.01,0.01-0.01,0.02-0.02,0.03l-6.96,6.83L42.99,19.58z M45.46,21l6.1-5.99l1.02,1
		l-6.05,6.05L45.46,21z M56.04,17.44l-7.99,7.91c-0.49,0.49-1.26,0.58-1.75,0.21c-0.3-0.23-0.48-0.56-0.51-0.92
		c-0.02-0.36,0.11-0.71,0.37-0.96l0.54-0.54l0.09,0.09l7-7l-0.05-0.05l0.39-0.38c0.53-0.52,1.36-0.59,1.86-0.16
		c0.27,0.24,0.42,0.58,0.42,0.94C56.41,16.9,56.28,17.22,56.04,17.44z"/>
	<path class="st0" d="M47.32,14.65c0.1,0.1,0.23,0.15,0.35,0.15s0.26-0.05,0.35-0.15c0.2-0.2,0.2-0.51,0-0.71L43.18,9.1
		c-0.2-0.2-0.51-0.2-0.71,0s-0.2,0.51,0,0.71L47.32,14.65z"/>
	<path class="st0" d="M44.91,17.57c0.13,0,0.26-0.05,0.35-0.15c0.2-0.2,0.2-0.51,0-0.71l-4.85-4.85c-0.2-0.2-0.51-0.2-0.71,0
		s-0.2,0.51,0,0.71l4.85,4.85C44.65,17.52,44.78,17.57,44.91,17.57z"/>
	<path class="st0" d="M16.58,18.3c-0.2,0.2-0.2,0.51,0,0.71l17.27,17.27c0.1,0.1,0.23,0.15,0.35,0.15s0.26-0.05,0.35-0.15
		c0.2-0.2,0.2-0.51,0-0.71L17.29,18.3C17.09,18.11,16.78,18.11,16.58,18.3z"/>
	<path class="st0" d="M39.95,42.77c1.48,0,2.69-1.2,2.69-2.69s-1.21-2.69-2.69-2.69s-2.69,1.2-2.69,2.69S38.47,42.77,39.95,42.77z
		 M39.95,38.4c0.93,0,1.69,0.76,1.69,1.69s-0.76,1.69-1.69,1.69s-1.69-0.76-1.69-1.69S39.02,38.4,39.95,38.4z"/>
	<path class="st0" d="M12.12,18.23c-0.47,0.1-0.96,0.15-1.44,0.15c-3.95,0-7.16-3.21-7.16-7.16c0-0.28-0.22-0.5-0.5-0.5
		s-0.5,0.22-0.5,0.5c0,4.5,3.66,8.16,8.16,8.16c0.55,0,1.11-0.06,1.64-0.17c0.27-0.06,0.44-0.32,0.39-0.59
		C12.66,18.35,12.39,18.18,12.12,18.23z"/>
	<path class="st0" d="M35.25,10.35c0.1,0.1,0.23,0.15,0.35,0.15s0.26-0.05,0.35-0.15c0.2-0.2,0.2-0.51,0-0.71L28.3,1.99
		c-0.2-0.2-0.51-0.2-0.71,0s-0.2,0.51,0,0.71L35.25,10.35z"/>
</g>
</svg>
