<?xml version="1.0" encoding="utf-8"?>
<!-- Generator: Adobe Illustrator 23.0.6, SVG Export Plug-In . SVG Version: 6.00 Build 0)  -->
<svg version="1.1" id="Layer_1" xmlns="http://www.w3.org/2000/svg" xmlns:xlink="http://www.w3.org/1999/xlink" x="0px" y="0px"
	 viewBox="0 0 101.69 99.08" style="enable-background:new 0 0 101.69 99.08;" xml:space="preserve">
<style type="text/css">
	.st0{fill:#F49C6C;}
	.st1{fill:#F1DACF;}
	.st2{fill:none;}
	.st3{fill:#FACCAC;}
	.st4{fill:#EF5B24;}
</style>
<g>
	<g>
		<rect x="38.73" y="31.59" class="st0" width="28.24" height="52.65"/>
	</g>
	<g>
		<rect x="42.16" y="27.64" class="st0" width="21.37" height="3.73"/>
	</g>
	<g>
		<rect x="42.16" y="27.64" class="st0" width="21.37" height="3.73"/>
	</g>
	<g>
		<rect x="49.14" y="20.36" class="st0" width="6.92" height="7.09"/>
	</g>
	<g>
		<g>
			<rect x="42.76" y="34.85" class="st0" width="2.93" height="2.93"/>
		</g>
		<g>
			<rect x="47.61" y="34.85" class="st0" width="2.93" height="2.93"/>
		</g>
		<g>
			<rect x="42.76" y="40.15" class="st0" width="2.93" height="2.93"/>
		</g>
		<g>
			<rect x="47.61" y="40.15" class="st0" width="2.93" height="2.93"/>
		</g>
		<g>
			<rect x="42.76" y="45.44" class="st0" width="2.93" height="2.93"/>
		</g>
		<g>
			<rect x="47.61" y="45.44" class="st0" width="2.93" height="2.93"/>
		</g>
		<g>
			<rect x="42.76" y="50.74" class="st0" width="2.93" height="2.93"/>
		</g>
		<g>
			<rect x="47.61" y="50.74" class="st0" width="2.93" height="2.93"/>
		</g>
		<g>
			<rect x="42.76" y="56.03" class="st0" width="2.93" height="2.93"/>
		</g>
		<g>
			<rect x="47.61" y="56.03" class="st0" width="2.93" height="2.93"/>
		</g>
		<g>
			<rect x="42.76" y="61.32" class="st0" width="2.93" height="2.93"/>
		</g>
		<g>
			<rect x="47.61" y="61.32" class="st0" width="2.93" height="2.93"/>
		</g>
		<g>
			<rect x="42.76" y="66.62" class="st0" width="2.93" height="2.93"/>
		</g>
		<g>
			<rect x="47.61" y="66.62" class="st0" width="2.93" height="2.93"/>
		</g>
		<g>
			<rect x="42.61" y="71.76" class="st0" width="3.24" height="3.24"/>
		</g>
		<g>
			<rect x="42.61" y="76.97" class="st0" width="3.24" height="3.24"/>
		</g>
		<g>
			<rect x="47.61" y="71.91" class="st0" width="2.93" height="2.93"/>
		</g>
		<g>
			<g>
				
					<rect x="59.31" y="34.85" transform="matrix(-1 -4.497659e-11 4.497659e-11 -1 121.557 72.6376)" class="st0" width="2.93" height="2.93"/>
			</g>
			<g>
				
					<rect x="54.47" y="34.85" transform="matrix(-1 -4.466661e-11 4.466661e-11 -1 111.8647 72.6376)" class="st0" width="2.93" height="2.93"/>
			</g>
			<g>
				
					<rect x="59.31" y="40.15" transform="matrix(-1 -4.466661e-11 4.466661e-11 -1 121.557 83.2258)" class="st0" width="2.93" height="2.93"/>
			</g>
			<g>
				
					<rect x="54.47" y="40.15" transform="matrix(-1 -4.466661e-11 4.466661e-11 -1 111.8647 83.2258)" class="st0" width="2.93" height="2.93"/>
			</g>
			<g>
				
					<rect x="59.31" y="45.44" transform="matrix(-1 -4.497659e-11 4.497659e-11 -1 121.557 93.814)" class="st0" width="2.93" height="2.93"/>
			</g>
			<g>
				
					<rect x="54.47" y="45.44" transform="matrix(-1 -4.466661e-11 4.466661e-11 -1 111.8647 93.814)" class="st0" width="2.93" height="2.93"/>
			</g>
			<g>
				
					<rect x="59.31" y="50.74" transform="matrix(-1 -4.497659e-11 4.497659e-11 -1 121.557 104.4022)" class="st0" width="2.93" height="2.93"/>
			</g>
			<g>
				
					<rect x="54.47" y="50.74" transform="matrix(-1 -4.497659e-11 4.497659e-11 -1 111.8647 104.4022)" class="st0" width="2.93" height="2.93"/>
			</g>
			<g>
				
					<rect x="59.31" y="56.03" transform="matrix(-1 -4.528701e-11 4.528701e-11 -1 121.557 114.9904)" class="st0" width="2.93" height="2.93"/>
			</g>
			<g>
				
					<rect x="54.47" y="56.03" transform="matrix(-1 -4.466661e-11 4.466661e-11 -1 111.8647 114.9904)" class="st0" width="2.93" height="2.93"/>
			</g>
			<g>
				
					<rect x="59.31" y="61.32" transform="matrix(-1 -4.466661e-11 4.466661e-11 -1 121.557 125.5786)" class="st0" width="2.93" height="2.93"/>
			</g>
			<g>
				
					<rect x="54.47" y="61.32" transform="matrix(-1 -4.466661e-11 4.466661e-11 -1 111.8647 125.5786)" class="st0" width="2.93" height="2.93"/>
			</g>
			<g>
				
					<rect x="59.31" y="66.62" transform="matrix(-1 -4.528701e-11 4.528701e-11 -1 121.557 136.1668)" class="st0" width="2.93" height="2.93"/>
			</g>
			<g>
				
					<rect x="54.47" y="66.62" transform="matrix(-1 -4.466661e-11 4.466661e-11 -1 111.8647 136.1668)" class="st0" width="2.93" height="2.93"/>
			</g>
			<g>
				
					<rect x="59.16" y="71.76" transform="matrix(-1 -4.497881e-11 4.497881e-11 -1 121.557 146.7551)" class="st0" width="3.24" height="3.24"/>
			</g>
			<g>
				
					<rect x="59.16" y="76.97" transform="matrix(-1 -4.497881e-11 4.497881e-11 -1 121.557 157.1804)" class="st0" width="3.24" height="3.24"/>
			</g>
			<g>
				
					<rect x="54.47" y="71.91" transform="matrix(-1 -4.466661e-11 4.466661e-11 -1 111.8647 146.7551)" class="st0" width="2.93" height="2.93"/>
			</g>
		</g>
	</g>
	<g>
		<rect x="49.05" y="77.39" class="st0" width="3.3" height="6.8"/>
	</g>
	<g>
		<rect x="52.53" y="77.39" class="st0" width="3.3" height="6.8"/>
	</g>
	<g>
		<rect x="36.38" y="35.83" class="st0" width="2.37" height="48.41"/>
	</g>
	<g>
		<rect x="34.41" y="39.35" class="st0" width="1.96" height="44.88"/>
	</g>
	<g>
		<g>
			
				<rect x="67.1" y="35.83" transform="matrix(-1 -4.459822e-11 4.459822e-11 -1 136.5558 120.0715)" class="st0" width="2.37" height="48.41"/>
		</g>
		<g>
			
				<rect x="69.48" y="39.35" transform="matrix(-1 -4.462798e-11 4.462798e-11 -1 140.9068 123.593)" class="st0" width="1.96" height="44.88"/>
		</g>
	</g>
	<g>
		<rect x="29.86" y="84.35" class="st0" width="45.31" height="3.58"/>
	</g>
	<g>
		<rect x="69.53" y="39.5" class="st1" width="1.95" height="44.63"/>
	</g>
	<g>
		<g>
			<rect x="38.98" y="83.91" class="st0" width="0.02" height="0.31"/>
		</g>
		<g>
			<rect x="49.3" y="83.91" class="st0" width="3.3" height="0.27"/>
		</g>
		<g>
			<rect x="52.78" y="83.91" class="st0" width="3.29" height="0.27"/>
		</g>
		<g>
			<rect x="67.21" y="83.91" class="st0" width="0.01" height="0.31"/>
		</g>
		<g>
			<rect x="49.3" y="83.91" class="st0" width="3.3" height="0.27"/>
		</g>
		<g>
			<rect x="52.78" y="83.91" class="st0" width="3.29" height="0.27"/>
		</g>
		<g>
			<rect x="38.98" y="83.91" class="st0" width="0.02" height="0.31"/>
		</g>
		<g>
			<g>
				<rect x="67.21" y="83.91" class="st0" width="2.36" height="0.31"/>
			</g>
			<g>
				<rect x="69.52" y="83.91" class="st0" width="1.96" height="0.31"/>
			</g>
		</g>
		<g>
			<rect x="38.98" y="83.91" class="st0" width="0.02" height="0.31"/>
		</g>
		<g>
			<rect x="49.3" y="83.91" class="st0" width="3.3" height="0.27"/>
		</g>
		<g>
			<rect x="52.78" y="83.91" class="st0" width="3.29" height="0.27"/>
		</g>
		<g>
			<rect x="67.21" y="83.91" class="st0" width="4.33" height="0.31"/>
		</g>
		<g>
			<rect x="38.98" y="83.91" class="st0" width="0.02" height="0.31"/>
		</g>
		<g>
			<rect x="49.3" y="83.91" class="st0" width="3.3" height="0.27"/>
		</g>
		<g>
			<rect x="52.78" y="83.91" class="st0" width="3.29" height="0.27"/>
		</g>
		<g>
			<rect x="67.21" y="83.91" class="st0" width="0.01" height="0.31"/>
		</g>
		<g>
			<rect x="49.3" y="83.91" class="st0" width="3.3" height="0.27"/>
		</g>
		<g>
			<rect x="52.78" y="83.91" class="st0" width="3.29" height="0.27"/>
		</g>
		<g>
			<rect x="38.98" y="83.91" class="st0" width="0.02" height="0.31"/>
		</g>
		<g>
			<g>
				<rect x="67.21" y="83.91" class="st0" width="2.36" height="0.31"/>
			</g>
			<g>
				<rect x="69.59" y="83.91" class="st0" width="1.95" height="0.31"/>
			</g>
		</g>
		<g>
			<rect x="38.98" y="83.91" class="st2" width="0.02" height="0.31"/>
		</g>
		<g>
			<rect x="49.3" y="83.91" class="st2" width="3.3" height="0.27"/>
		</g>
		<g>
			<rect x="52.78" y="83.91" class="st2" width="3.29" height="0.27"/>
		</g>
		<g>
			<path class="st1" d="M71.54,83.8H34.66v0.11h-4.54v4h45.13v-4h-3.71V83.8z M39,84.22h-0.02v-0.31H39V84.22z M52.6,84.18h-3.3
				v-0.27h3.3V84.18z M56.07,84.18h-3.29v-0.27h3.29V84.18z"/>
		</g>
		<g>
			<rect x="34.66" y="39.33" class="st1" width="1.86" height="44.47"/>
		</g>
		<g>
			<polygon class="st3" points="36.63,35.81 36.62,39.33 36.51,39.33 36.51,83.8 38.9,83.8 38.9,35.81 			"/>
		</g>
		<g>
			<polygon class="st3" points="69.57,39.33 69.57,35.81 67.25,35.81 67.25,83.8 69.53,83.8 69.53,36.06 69.53,83.8 			"/>
		</g>
		<g>
			<g>
				<polygon class="st0" points="42.42,31.57 42.42,31.57 38.98,31.57 38.98,35.81 38.9,35.81 38.9,83.8 67.25,83.8 67.25,35.81 
					67.22,35.81 67.22,31.57 63.79,31.57 63.79,31.57 				"/>
			</g>
			<g>
				<rect x="49.39" y="20.33" class="st3" width="6.92" height="7.28"/>
			</g>
			<g>
				<polygon class="st3" points="63.79,27.62 56.31,27.62 56.31,27.62 49.39,27.62 49.39,27.62 42.42,27.62 42.42,31.57 
					63.79,31.57 				"/>
			</g>
		</g>
	</g>
	<g>
		<path class="st4" d="M66.97,84.74H38.73c-0.28,0-0.5-0.22-0.5-0.5V31.59c0-0.28,0.22-0.5,0.5-0.5h28.24c0.28,0,0.5,0.22,0.5,0.5
			v52.65C67.47,84.51,67.24,84.74,66.97,84.74z M39.23,83.74h27.24V32.09H39.23V83.74z"/>
	</g>
	<g>
		<path class="st4" d="M64.03,31.87H41.66v-4.73h22.37V31.87z M42.66,30.87h20.37v-2.73H42.66V30.87z"/>
	</g>
	<g>
		<path class="st4" d="M64.03,31.87H41.66v-4.73h22.37V31.87z M42.66,30.87h20.37v-2.73H42.66V30.87z"/>
	</g>
	<g>
		<path class="st4" d="M56.56,27.94h-7.92v-8.09h7.92V27.94z M49.64,26.94h5.92v-6.09h-5.92V26.94z"/>
	</g>
	<g>
		<g>
			<rect x="42.76" y="34.85" class="st1" width="2.93" height="2.93"/>
		</g>
		<g>
			<rect x="47.61" y="34.85" class="st1" width="2.93" height="2.93"/>
		</g>
		<g>
			<rect x="42.76" y="40.15" class="st1" width="2.93" height="2.93"/>
		</g>
		<g>
			<rect x="47.61" y="40.15" class="st1" width="2.93" height="2.93"/>
		</g>
		<g>
			<rect x="42.76" y="45.44" class="st1" width="2.93" height="2.93"/>
		</g>
		<g>
			<rect x="47.61" y="45.44" class="st1" width="2.93" height="2.93"/>
		</g>
		<g>
			<rect x="42.76" y="50.74" class="st1" width="2.93" height="2.93"/>
		</g>
		<g>
			<rect x="47.61" y="50.74" class="st1" width="2.93" height="2.93"/>
		</g>
		<g>
			<rect x="42.76" y="56.03" class="st1" width="2.93" height="2.93"/>
		</g>
		<g>
			<rect x="47.61" y="56.03" class="st1" width="2.93" height="2.93"/>
		</g>
		<g>
			<rect x="42.76" y="61.32" class="st1" width="2.93" height="2.93"/>
		</g>
		<g>
			<rect x="47.61" y="61.32" class="st1" width="2.93" height="2.93"/>
		</g>
		<g>
			<rect x="42.76" y="66.62" class="st1" width="2.93" height="2.93"/>
		</g>
		<g>
			<rect x="47.61" y="66.62" class="st1" width="2.93" height="2.93"/>
		</g>
		<g>
			<rect x="42.61" y="71.76" class="st1" width="3.24" height="3.24"/>
		</g>
		<g>
			<rect x="42.61" y="76.97" class="st1" width="3.24" height="3.24"/>
		</g>
		<g>
			<rect x="47.61" y="71.91" class="st1" width="2.93" height="2.93"/>
		</g>
		<g>
			<g>
				
					<rect x="59.31" y="34.85" transform="matrix(-1 -4.497659e-11 4.497659e-11 -1 121.557 72.6376)" class="st1" width="2.93" height="2.93"/>
			</g>
			<g>
				
					<rect x="54.47" y="34.85" transform="matrix(-1 -4.466661e-11 4.466661e-11 -1 111.8647 72.6376)" class="st1" width="2.93" height="2.93"/>
			</g>
			<g>
				
					<rect x="59.31" y="40.15" transform="matrix(-1 -4.466661e-11 4.466661e-11 -1 121.557 83.2258)" class="st1" width="2.93" height="2.93"/>
			</g>
			<g>
				
					<rect x="54.47" y="40.15" transform="matrix(-1 -4.466661e-11 4.466661e-11 -1 111.8647 83.2258)" class="st1" width="2.93" height="2.93"/>
			</g>
			<g>
				
					<rect x="59.31" y="45.44" transform="matrix(-1 -4.497659e-11 4.497659e-11 -1 121.557 93.814)" class="st1" width="2.93" height="2.93"/>
			</g>
			<g>
				
					<rect x="54.47" y="45.44" transform="matrix(-1 -4.466661e-11 4.466661e-11 -1 111.8647 93.814)" class="st1" width="2.93" height="2.93"/>
			</g>
			<g>
				
					<rect x="59.31" y="50.74" transform="matrix(-1 -4.497659e-11 4.497659e-11 -1 121.557 104.4022)" class="st1" width="2.93" height="2.93"/>
			</g>
			<g>
				
					<rect x="54.47" y="50.74" transform="matrix(-1 -4.497659e-11 4.497659e-11 -1 111.8647 104.4022)" class="st1" width="2.93" height="2.93"/>
			</g>
			<g>
				
					<rect x="59.31" y="56.03" transform="matrix(-1 -4.528701e-11 4.528701e-11 -1 121.557 114.9904)" class="st1" width="2.93" height="2.93"/>
			</g>
			<g>
				
					<rect x="54.47" y="56.03" transform="matrix(-1 -4.466661e-11 4.466661e-11 -1 111.8647 114.9904)" class="st1" width="2.93" height="2.93"/>
			</g>
			<g>
				
					<rect x="59.31" y="61.32" transform="matrix(-1 -4.466661e-11 4.466661e-11 -1 121.557 125.5786)" class="st1" width="2.93" height="2.93"/>
			</g>
			<g>
				
					<rect x="54.47" y="61.32" transform="matrix(-1 -4.466661e-11 4.466661e-11 -1 111.8647 125.5786)" class="st1" width="2.93" height="2.93"/>
			</g>
			<g>
				
					<rect x="59.31" y="66.62" transform="matrix(-1 -4.528701e-11 4.528701e-11 -1 121.557 136.1668)" class="st1" width="2.93" height="2.93"/>
			</g>
			<g>
				
					<rect x="54.47" y="66.62" transform="matrix(-1 -4.466661e-11 4.466661e-11 -1 111.8647 136.1668)" class="st1" width="2.93" height="2.93"/>
			</g>
			<g>
				
					<rect x="59.16" y="71.76" transform="matrix(-1 -4.497881e-11 4.497881e-11 -1 121.557 146.7551)" class="st1" width="3.24" height="3.24"/>
			</g>
			<g>
				
					<rect x="59.16" y="76.97" transform="matrix(-1 -4.497881e-11 4.497881e-11 -1 121.557 157.1804)" class="st1" width="3.24" height="3.24"/>
			</g>
			<g>
				
					<rect x="54.47" y="71.91" transform="matrix(-1 -4.466661e-11 4.466661e-11 -1 111.8647 146.7551)" class="st1" width="2.93" height="2.93"/>
			</g>
		</g>
	</g>
	<g>
		<path class="st4" d="M52.56,20.53c-0.28,0-0.5-0.22-0.5-0.5v-8.88c0-0.28,0.22-0.5,0.5-0.5s0.5,0.22,0.5,0.5v8.88
			C53.06,20.31,52.84,20.53,52.56,20.53z"/>
	</g>
	<g>
		<rect x="49.05" y="77.39" class="st3" width="3.3" height="6.8"/>
	</g>
	<g>
		<rect x="52.53" y="77.39" class="st3" width="3.3" height="6.8"/>
	</g>
	<g>
		<g>
			<path class="st4" d="M45.69,38.28h-2.93c-0.28,0-0.5-0.22-0.5-0.5v-2.93c0-0.28,0.22-0.5,0.5-0.5h2.93c0.28,0,0.5,0.22,0.5,0.5
				v2.93C46.19,38.06,45.97,38.28,45.69,38.28z M43.26,37.28h1.93v-1.93h-1.93V37.28z"/>
		</g>
		<g>
			<path class="st4" d="M50.54,38.28h-2.93c-0.28,0-0.5-0.22-0.5-0.5v-2.93c0-0.28,0.22-0.5,0.5-0.5h2.93c0.28,0,0.5,0.22,0.5,0.5
				v2.93C51.04,38.06,50.82,38.28,50.54,38.28z M48.11,37.28h1.93v-1.93h-1.93V37.28z"/>
		</g>
		<g>
			<path class="st4" d="M45.69,43.58h-2.93c-0.28,0-0.5-0.22-0.5-0.5v-2.93c0-0.28,0.22-0.5,0.5-0.5h2.93c0.28,0,0.5,0.22,0.5,0.5
				v2.93C46.19,43.36,45.97,43.58,45.69,43.58z M43.26,42.58h1.93v-1.93h-1.93V42.58z"/>
		</g>
		<g>
			<path class="st4" d="M50.54,43.58h-2.93c-0.28,0-0.5-0.22-0.5-0.5v-2.93c0-0.28,0.22-0.5,0.5-0.5h2.93c0.28,0,0.5,0.22,0.5,0.5
				v2.93C51.04,43.36,50.82,43.58,50.54,43.58z M48.11,42.58h1.93v-1.93h-1.93V42.58z"/>
		</g>
		<g>
			<path class="st4" d="M45.69,48.87h-2.93c-0.28,0-0.5-0.22-0.5-0.5v-2.93c0-0.28,0.22-0.5,0.5-0.5h2.93c0.28,0,0.5,0.22,0.5,0.5
				v2.93C46.19,48.65,45.97,48.87,45.69,48.87z M43.26,47.87h1.93v-1.93h-1.93V47.87z"/>
		</g>
		<g>
			<path class="st4" d="M50.54,48.87h-2.93c-0.28,0-0.5-0.22-0.5-0.5v-2.93c0-0.28,0.22-0.5,0.5-0.5h2.93c0.28,0,0.5,0.22,0.5,0.5
				v2.93C51.04,48.65,50.82,48.87,50.54,48.87z M48.11,47.87h1.93v-1.93h-1.93V47.87z"/>
		</g>
		<g>
			<path class="st4" d="M45.69,54.17h-2.93c-0.28,0-0.5-0.22-0.5-0.5v-2.93c0-0.28,0.22-0.5,0.5-0.5h2.93c0.28,0,0.5,0.22,0.5,0.5
				v2.93C46.19,53.94,45.97,54.17,45.69,54.17z M43.26,53.17h1.93v-1.93h-1.93V53.17z"/>
		</g>
		<g>
			<path class="st4" d="M50.54,54.17h-2.93c-0.28,0-0.5-0.22-0.5-0.5v-2.93c0-0.28,0.22-0.5,0.5-0.5h2.93c0.28,0,0.5,0.22,0.5,0.5
				v2.93C51.04,53.94,50.82,54.17,50.54,54.17z M48.11,53.17h1.93v-1.93h-1.93V53.17z"/>
		</g>
		<g>
			<path class="st4" d="M45.69,59.46h-2.93c-0.28,0-0.5-0.22-0.5-0.5v-2.93c0-0.28,0.22-0.5,0.5-0.5h2.93c0.28,0,0.5,0.22,0.5,0.5
				v2.93C46.19,59.24,45.97,59.46,45.69,59.46z M43.26,58.46h1.93v-1.93h-1.93V58.46z"/>
		</g>
		<g>
			<path class="st4" d="M50.54,59.46h-2.93c-0.28,0-0.5-0.22-0.5-0.5v-2.93c0-0.28,0.22-0.5,0.5-0.5h2.93c0.28,0,0.5,0.22,0.5,0.5
				v2.93C51.04,59.24,50.82,59.46,50.54,59.46z M48.11,58.46h1.93v-1.93h-1.93V58.46z"/>
		</g>
		<g>
			<path class="st4" d="M45.69,64.76h-2.93c-0.28,0-0.5-0.22-0.5-0.5v-2.93c0-0.28,0.22-0.5,0.5-0.5h2.93c0.28,0,0.5,0.22,0.5,0.5
				v2.93C46.19,64.53,45.97,64.76,45.69,64.76z M43.26,63.76h1.93v-1.93h-1.93V63.76z"/>
		</g>
		<g>
			<path class="st4" d="M50.54,64.76h-2.93c-0.28,0-0.5-0.22-0.5-0.5v-2.93c0-0.28,0.22-0.5,0.5-0.5h2.93c0.28,0,0.5,0.22,0.5,0.5
				v2.93C51.04,64.53,50.82,64.76,50.54,64.76z M48.11,63.76h1.93v-1.93h-1.93V63.76z"/>
		</g>
		<g>
			<path class="st4" d="M45.69,70.05h-2.93c-0.28,0-0.5-0.22-0.5-0.5v-2.93c0-0.28,0.22-0.5,0.5-0.5h2.93c0.28,0,0.5,0.22,0.5,0.5
				v2.93C46.19,69.83,45.97,70.05,45.69,70.05z M43.26,69.05h1.93v-1.93h-1.93V69.05z"/>
		</g>
		<g>
			<path class="st4" d="M50.54,70.05h-2.93c-0.28,0-0.5-0.22-0.5-0.5v-2.93c0-0.28,0.22-0.5,0.5-0.5h2.93c0.28,0,0.5,0.22,0.5,0.5
				v2.93C51.04,69.83,50.82,70.05,50.54,70.05z M48.11,69.05h1.93v-1.93h-1.93V69.05z"/>
		</g>
		<g>
			<path class="st4" d="M45.85,75.5h-3.24c-0.28,0-0.5-0.22-0.5-0.5v-3.24c0-0.28,0.22-0.5,0.5-0.5h3.24c0.28,0,0.5,0.22,0.5,0.5V75
				C46.35,75.27,46.12,75.5,45.85,75.5z M43.11,74.5h2.24v-2.24h-2.24V74.5z"/>
		</g>
		<g>
			<path class="st4" d="M45.85,80.71h-3.24c-0.28,0-0.5-0.22-0.5-0.5v-3.24c0-0.28,0.22-0.5,0.5-0.5h3.24c0.28,0,0.5,0.22,0.5,0.5
				v3.24C46.35,80.48,46.12,80.71,45.85,80.71z M43.11,79.71h2.24v-2.24h-2.24V79.71z"/>
		</g>
		<g>
			<path class="st4" d="M50.54,75.34h-2.93c-0.28,0-0.5-0.22-0.5-0.5v-2.93c0-0.28,0.22-0.5,0.5-0.5h2.93c0.28,0,0.5,0.22,0.5,0.5
				v2.93C51.04,75.12,50.82,75.34,50.54,75.34z M48.11,74.34h1.93v-1.93h-1.93V74.34z"/>
		</g>
		<g>
			<g>
				<path class="st4" d="M62.24,38.28h-2.93c-0.28,0-0.5-0.22-0.5-0.5v-2.93c0-0.28,0.22-0.5,0.5-0.5h2.93c0.28,0,0.5,0.22,0.5,0.5
					v2.93C62.74,38.06,62.52,38.28,62.24,38.28z M59.81,37.28h1.93v-1.93h-1.93V37.28z"/>
			</g>
			<g>
				<path class="st4" d="M57.4,38.28h-2.93c-0.28,0-0.5-0.22-0.5-0.5v-2.93c0-0.28,0.22-0.5,0.5-0.5h2.93c0.28,0,0.5,0.22,0.5,0.5
					v2.93C57.9,38.06,57.68,38.28,57.4,38.28z M54.97,37.28h1.93v-1.93h-1.93V37.28z"/>
			</g>
			<g>
				<path class="st4" d="M62.24,43.58h-2.93c-0.28,0-0.5-0.22-0.5-0.5v-2.93c0-0.28,0.22-0.5,0.5-0.5h2.93c0.28,0,0.5,0.22,0.5,0.5
					v2.93C62.74,43.36,62.52,43.58,62.24,43.58z M59.81,42.58h1.93v-1.93h-1.93V42.58z"/>
			</g>
			<g>
				<path class="st4" d="M57.4,43.58h-2.93c-0.28,0-0.5-0.22-0.5-0.5v-2.93c0-0.28,0.22-0.5,0.5-0.5h2.93c0.28,0,0.5,0.22,0.5,0.5
					v2.93C57.9,43.36,57.68,43.58,57.4,43.58z M54.97,42.58h1.93v-1.93h-1.93V42.58z"/>
			</g>
			<g>
				<path class="st4" d="M62.24,48.87h-2.93c-0.28,0-0.5-0.22-0.5-0.5v-2.93c0-0.28,0.22-0.5,0.5-0.5h2.93c0.28,0,0.5,0.22,0.5,0.5
					v2.93C62.74,48.65,62.52,48.87,62.24,48.87z M59.81,47.87h1.93v-1.93h-1.93V47.87z"/>
			</g>
			<g>
				<path class="st4" d="M57.4,48.87h-2.93c-0.28,0-0.5-0.22-0.5-0.5v-2.93c0-0.28,0.22-0.5,0.5-0.5h2.93c0.28,0,0.5,0.22,0.5,0.5
					v2.93C57.9,48.65,57.68,48.87,57.4,48.87z M54.97,47.87h1.93v-1.93h-1.93V47.87z"/>
			</g>
			<g>
				<path class="st4" d="M62.24,54.17h-2.93c-0.28,0-0.5-0.22-0.5-0.5v-2.93c0-0.28,0.22-0.5,0.5-0.5h2.93c0.28,0,0.5,0.22,0.5,0.5
					v2.93C62.74,53.94,62.52,54.17,62.24,54.17z M59.81,53.17h1.93v-1.93h-1.93V53.17z"/>
			</g>
			<g>
				<path class="st4" d="M57.4,54.17h-2.93c-0.28,0-0.5-0.22-0.5-0.5v-2.93c0-0.28,0.22-0.5,0.5-0.5h2.93c0.28,0,0.5,0.22,0.5,0.5
					v2.93C57.9,53.94,57.68,54.17,57.4,54.17z M54.97,53.17h1.93v-1.93h-1.93V53.17z"/>
			</g>
			<g>
				<path class="st4" d="M62.24,59.46h-2.93c-0.28,0-0.5-0.22-0.5-0.5v-2.93c0-0.28,0.22-0.5,0.5-0.5h2.93c0.28,0,0.5,0.22,0.5,0.5
					v2.93C62.74,59.24,62.52,59.46,62.24,59.46z M59.81,58.46h1.93v-1.93h-1.93V58.46z"/>
			</g>
			<g>
				<path class="st4" d="M57.4,59.46h-2.93c-0.28,0-0.5-0.22-0.5-0.5v-2.93c0-0.28,0.22-0.5,0.5-0.5h2.93c0.28,0,0.5,0.22,0.5,0.5
					v2.93C57.9,59.24,57.68,59.46,57.4,59.46z M54.97,58.46h1.93v-1.93h-1.93V58.46z"/>
			</g>
			<g>
				<path class="st4" d="M62.24,64.76h-2.93c-0.28,0-0.5-0.22-0.5-0.5v-2.93c0-0.28,0.22-0.5,0.5-0.5h2.93c0.28,0,0.5,0.22,0.5,0.5
					v2.93C62.74,64.53,62.52,64.76,62.24,64.76z M59.81,63.76h1.93v-1.93h-1.93V63.76z"/>
			</g>
			<g>
				<path class="st4" d="M57.4,64.76h-2.93c-0.28,0-0.5-0.22-0.5-0.5v-2.93c0-0.28,0.22-0.5,0.5-0.5h2.93c0.28,0,0.5,0.22,0.5,0.5
					v2.93C57.9,64.53,57.68,64.76,57.4,64.76z M54.97,63.76h1.93v-1.93h-1.93V63.76z"/>
			</g>
			<g>
				<path class="st4" d="M62.24,70.05h-2.93c-0.28,0-0.5-0.22-0.5-0.5v-2.93c0-0.28,0.22-0.5,0.5-0.5h2.93c0.28,0,0.5,0.22,0.5,0.5
					v2.93C62.74,69.83,62.52,70.05,62.24,70.05z M59.81,69.05h1.93v-1.93h-1.93V69.05z"/>
			</g>
			<g>
				<path class="st4" d="M57.4,70.05h-2.93c-0.28,0-0.5-0.22-0.5-0.5v-2.93c0-0.28,0.22-0.5,0.5-0.5h2.93c0.28,0,0.5,0.22,0.5,0.5
					v2.93C57.9,69.83,57.68,70.05,57.4,70.05z M54.97,69.05h1.93v-1.93h-1.93V69.05z"/>
			</g>
			<g>
				<path class="st4" d="M62.4,75.5h-3.24c-0.28,0-0.5-0.22-0.5-0.5v-3.24c0-0.28,0.22-0.5,0.5-0.5h3.24c0.28,0,0.5,0.22,0.5,0.5V75
					C62.9,75.27,62.67,75.5,62.4,75.5z M59.66,74.5h2.24v-2.24h-2.24V74.5z"/>
			</g>
			<g>
				<path class="st4" d="M62.4,80.71h-3.24c-0.28,0-0.5-0.22-0.5-0.5v-3.24c0-0.28,0.22-0.5,0.5-0.5h3.24c0.28,0,0.5,0.22,0.5,0.5
					v3.24C62.9,80.48,62.67,80.71,62.4,80.71z M59.66,79.71h2.24v-2.24h-2.24V79.71z"/>
			</g>
			<g>
				<path class="st4" d="M57.4,75.34h-2.93c-0.28,0-0.5-0.22-0.5-0.5v-2.93c0-0.28,0.22-0.5,0.5-0.5h2.93c0.28,0,0.5,0.22,0.5,0.5
					v2.93C57.9,75.12,57.68,75.34,57.4,75.34z M54.97,74.34h1.93v-1.93h-1.93V74.34z"/>
			</g>
		</g>
	</g>
	<g>
		<path class="st4" d="M52.35,84.7h-3.3c-0.28,0-0.5-0.22-0.5-0.5v-6.8c0-0.28,0.22-0.5,0.5-0.5h3.3c0.28,0,0.5,0.22,0.5,0.5v6.8
			C52.85,84.48,52.62,84.7,52.35,84.7z M49.55,83.7h2.3v-5.8h-2.3V83.7z"/>
	</g>
	<g>
		<path class="st4" d="M55.82,84.7h-3.3c-0.28,0-0.5-0.22-0.5-0.5v-6.8c0-0.28,0.22-0.5,0.5-0.5h3.3c0.28,0,0.5,0.22,0.5,0.5v6.8
			C56.32,84.48,56.1,84.7,55.82,84.7z M53.02,83.7h2.3v-5.8h-2.3V83.7z"/>
	</g>
	<g>
		<path class="st4" d="M38.74,84.74h-2.37c-0.28,0-0.5-0.22-0.5-0.5V35.83c0-0.28,0.22-0.5,0.5-0.5h2.37c0.28,0,0.5,0.22,0.5,0.5
			v48.41C39.24,84.51,39.02,84.74,38.74,84.74z M36.88,83.74h1.37V36.33h-1.37V83.74z"/>
	</g>
	<g>
		<path class="st4" d="M36.36,84.74h-1.96c-0.28,0-0.5-0.22-0.5-0.5V39.35c0-0.28,0.22-0.5,0.5-0.5h1.96c0.28,0,0.5,0.22,0.5,0.5
			v44.88C36.86,84.51,36.64,84.74,36.36,84.74z M34.91,83.74h0.96V39.85h-0.96V83.74z"/>
	</g>
	<g>
		<g>
			<path class="st4" d="M69.46,84.74H67.1c-0.28,0-0.5-0.22-0.5-0.5V35.83c0-0.28,0.22-0.5,0.5-0.5h2.37c0.28,0,0.5,0.22,0.5,0.5
				v48.41C69.96,84.51,69.74,84.74,69.46,84.74z M67.6,83.74h1.37V36.33H67.6V83.74z"/>
		</g>
		<g>
			<path class="st4" d="M71.43,84.74h-1.96c-0.28,0-0.5-0.22-0.5-0.5V39.35c0-0.28,0.22-0.5,0.5-0.5h1.96c0.28,0,0.5,0.22,0.5,0.5
				v44.88C71.93,84.51,71.71,84.74,71.43,84.74z M69.97,83.74h0.96V39.85h-0.96V83.74z"/>
		</g>
	</g>
	<g>
		<path class="st4" d="M75.17,88.43H29.86c-0.28,0-0.5-0.22-0.5-0.5v-3.58c0-0.28,0.22-0.5,0.5-0.5h45.31c0.28,0,0.5,0.22,0.5,0.5
			v3.58C75.67,88.21,75.45,88.43,75.17,88.43z M30.36,87.43h44.31v-2.58H30.36V87.43z"/>
	</g>
	<g>
		<path class="st0" d="M39.12,19.8c-0.28,0-0.5-0.22-0.5-0.5c0-1.02-0.75-1.86-1.73-2c-0.09,0.01-0.19,0.01-0.28,0.01
			c-0.28,0-0.5-0.22-0.5-0.5c0-0.01,0-0.01,0-0.02s0-0.01,0-0.02c0-0.28,0.22-0.5,0.5-0.5c0.1,0,0.19,0,0.28,0.01
			c0.98-0.14,1.73-0.98,1.73-2c0-0.28,0.22-0.5,0.5-0.5s0.5,0.22,0.5,0.5c0,1,0.79,1.86,1.79,2c0.09-0.01,0.19-0.01,0.29-0.01
			c0.28,0,0.5,0.22,0.5,0.5s-0.22,0.53-0.5,0.53c-0.1,0-0.19,0-0.29-0.01c-0.99,0.14-1.79,1-1.79,2
			C39.62,19.57,39.4,19.8,39.12,19.8z M38.29,16.79c0.33,0.22,0.62,0.51,0.84,0.85c0.22-0.33,0.51-0.62,0.85-0.85
			c-0.34-0.22-0.63-0.51-0.85-0.85C38.91,16.28,38.62,16.57,38.29,16.79z"/>
	</g>
	<g>
		<path class="st0" d="M26.68,33.44c-0.28,0-0.5-0.22-0.5-0.5c0-1.02-0.75-1.86-1.73-2c-0.09,0.01-0.19,0.01-0.28,0.01
			c-0.28,0-0.5-0.22-0.5-0.5c0-0.01,0-0.01,0-0.02s0-0.01,0-0.02c0-0.28,0.22-0.5,0.5-0.5c0.1,0,0.19,0,0.28,0.01
			c0.98-0.14,1.73-0.98,1.73-2c0-0.28,0.22-0.5,0.5-0.5s0.5,0.22,0.5,0.5c0,1,0.79,1.86,1.79,2c0.09-0.01,0.19-0.01,0.29-0.01
			c0.28,0,0.5,0.22,0.5,0.5s-0.22,0.53-0.5,0.53c-0.1,0-0.19,0-0.29-0.01c-0.99,0.14-1.79,1-1.79,2
			C27.18,33.21,26.95,33.44,26.68,33.44z M25.85,30.43c0.33,0.22,0.62,0.51,0.84,0.85c0.22-0.33,0.51-0.62,0.85-0.85
			c-0.34-0.22-0.63-0.51-0.85-0.85C26.46,29.92,26.18,30.21,25.85,30.43z"/>
	</g>
	<g>
		<path class="st0" d="M67.18,19.84c-0.28,0-0.5-0.22-0.5-0.5c0-1.02-0.75-1.86-1.73-2c-0.09,0.01-0.19,0.01-0.28,0.01
			c-0.28,0-0.5-0.22-0.5-0.5c0-0.01,0-0.01,0-0.02s0-0.01,0-0.02c0-0.28,0.22-0.5,0.5-0.5c0.1,0,0.19,0,0.28,0.01
			c0.98-0.14,1.73-0.98,1.73-2c0-0.28,0.22-0.5,0.5-0.5s0.5,0.22,0.5,0.5c0,1,0.79,1.86,1.79,2c0.09-0.01,0.19-0.01,0.29-0.01
			c0.28,0,0.5,0.22,0.5,0.5s-0.22,0.53-0.5,0.53c-0.1,0-0.19,0-0.29-0.01c-0.99,0.14-1.79,1-1.79,2
			C67.68,19.62,67.46,19.84,67.18,19.84z M66.35,16.84c0.33,0.22,0.62,0.51,0.84,0.85c0.22-0.33,0.51-0.62,0.85-0.85
			c-0.34-0.22-0.63-0.51-0.85-0.85C66.97,16.32,66.68,16.61,66.35,16.84z"/>
	</g>
	<g>
		<path class="st0" d="M74.95,34.43c-0.28,0-0.5-0.22-0.5-0.5c0-1.02-0.75-1.86-1.73-2c-0.09,0.01-0.19,0.01-0.28,0.01
			c-0.28,0-0.5-0.22-0.5-0.5c0-0.01,0-0.01,0-0.02s0-0.01,0-0.02c0-0.28,0.22-0.5,0.5-0.5c0.1,0,0.19,0,0.28,0.01
			c0.98-0.14,1.73-0.98,1.73-2c0-0.28,0.22-0.5,0.5-0.5s0.5,0.22,0.5,0.5c0,1,0.79,1.86,1.79,2c0.09-0.01,0.19-0.01,0.29-0.01
			c0.28,0,0.5,0.22,0.5,0.5s-0.22,0.53-0.5,0.53c-0.1,0-0.19,0-0.29-0.01c-0.99,0.14-1.79,1-1.79,2
			C75.45,34.21,75.23,34.43,74.95,34.43z M74.12,31.43c0.33,0.22,0.62,0.51,0.84,0.85c0.22-0.33,0.51-0.62,0.85-0.85
			c-0.34-0.22-0.63-0.51-0.85-0.85C74.74,30.92,74.45,31.21,74.12,31.43z"/>
	</g>
</g>
</svg>
