<?xml version="1.0" encoding="utf-8"?>
<!-- Generator: Adobe Illustrator 23.0.6, SVG Export Plug-In . SVG Version: 6.00 Build 0)  -->
<svg version="1.1" id="Layer_1" xmlns="http://www.w3.org/2000/svg" xmlns:xlink="http://www.w3.org/1999/xlink" x="0px" y="0px"
	 viewBox="0 0 101.69 99.08" style="enable-background:new 0 0 101.69 99.08;" xml:space="preserve">
<style type="text/css">
	.st0{fill:#F1DACF;}
	.st1{fill:#F49C6C;}
	.st2{fill:#FACCAC;}
	.st3{fill:#FFFFFF;}
	.st4{fill:#EF5B24;}
	.st5{fill:none;stroke:#EF1385;stroke-linejoin:round;stroke-miterlimit:10;}
</style>
<g>
	<g>
		<path class="st0" d="M26.22,24.79v23.46l18.32,15.3l6.25-4.34V24.27H26.36C26.36,24.27,26.36,24.79,26.22,24.79z"/>
	</g>
	<g>
		<polygon class="st1" points="50.57,15.54 37.77,24.2 50.74,24.2 50.74,15.65 		"/>
	</g>
	<g>
		<polygon class="st2" points="50.74,15.65 50.74,24.2 63.71,24.2 		"/>
	</g>
	<g>
		<path class="st3" d="M75.28,24.79v23.46l-18.32,15.3l-6.25-4.34V24.27h24.42C75.13,24.27,75.13,24.79,75.28,24.79z"/>
	</g>
	<g>
		<path class="st1" d="M25.63,31.92v6.72l-9.75,0.06C15.88,38.7,25.06,31.92,25.63,31.92z"/>
	</g>
	<g>
		<path class="st2" d="M75.51,31.92v6.72l9.75,0.06C85.26,38.7,76.08,31.92,75.51,31.92z"/>
	</g>
	<g>
		<polygon class="st1" points="15.28,83.99 50.74,83.99 50.74,59.67 		"/>
	</g>
	<g>
		<polygon class="st2" points="50.74,59.67 50.74,83.99 86.19,83.99 		"/>
	</g>
	<g>
		<polygon class="st2" points="86.19,83.99 86.19,40.16 57.85,63.99 		"/>
	</g>
	<g>
		<polygon class="st1" points="15.92,83.99 15.92,40.16 44.26,63.99 		"/>
	</g>
	<g>
		<path class="st4" d="M86.17,84.38H15.26c-0.37,0-0.68-0.3-0.68-0.68V39.28c0-0.37,0.3-0.68,0.68-0.68h10.67v1.35h-9.99v43.07
			h69.55V39.96h-9.77V38.6h10.45c0.37,0,0.68,0.3,0.68,0.68v44.43C86.84,84.08,86.54,84.38,86.17,84.38z"/>
	</g>
	<g>
		<path class="st4" d="M25.85,39.86l-10.58-0.04c-0.3,0-0.56-0.2-0.65-0.48c-0.09-0.28,0.02-0.59,0.27-0.76l10.63-7.22l0.76,1.12
			l-8.82,5.99l8.39,0.03L25.85,39.86z"/>
	</g>
	<g>
		<path class="st4" d="M37.71,24.73l-0.76-1.12l13.38-9.08c0.23-0.16,0.53-0.16,0.76,0l13,8.85l-0.76,1.12l-12.62-8.59L37.71,24.73z
			"/>
	</g>
	<g>
		<path class="st4" d="M86.43,40.09C86.43,40.09,86.43,40.09,86.43,40.09l-10.64-0.04l0.01-1.35l8.42,0.03l-8.82-6.01l0.76-1.12
			l10.65,7.25c0.25,0.17,0.35,0.48,0.27,0.76C86.99,39.9,86.73,40.09,86.43,40.09z"/>
	</g>
	<g>
		<path class="st4" d="M86.19,84.67h-70.9c-0.3,0-0.56-0.19-0.65-0.48c-0.09-0.28,0.02-0.59,0.26-0.76l35.45-24.33
			c0.23-0.16,0.53-0.16,0.77,0l35.45,24.33c0.24,0.17,0.35,0.48,0.26,0.76C86.75,84.47,86.49,84.67,86.19,84.67z M17.47,83.31H84
			L50.74,60.49L17.47,83.31z"/>
	</g>
	<g>
		<path class="st4" d="M76.46,48.4h-1.35V24.8H26.59v23.6h-1.35V24.13c0-0.37,0.3-0.68,0.68-0.68h49.87c0.37,0,0.68,0.3,0.68,0.68
			V48.4z"/>
	</g>
	<g>
		<path class="st4" d="M43.95,64.38c-0.15,0-0.31-0.05-0.44-0.16L15.12,40.24c-0.29-0.24-0.32-0.67-0.08-0.95
			c0.24-0.29,0.67-0.32,0.95-0.08l28.39,23.98c0.29,0.24,0.32,0.67,0.08,0.95C44.33,64.29,44.14,64.38,43.95,64.38z"/>
	</g>
	<g>
		<path class="st4" d="M57.63,64.38c-0.19,0-0.38-0.08-0.52-0.24c-0.24-0.29-0.21-0.71,0.08-0.95l28.61-24.2
			c0.29-0.24,0.71-0.21,0.96,0.08c0.24,0.29,0.21,0.71-0.08,0.95l-28.61,24.2C57.94,64.32,57.78,64.38,57.63,64.38z"/>
	</g>
	<g>
		<path class="st4" d="M43.24,39.13c0,4.14,3.31,7.51,7.43,7.6v-15.2C46.56,31.63,43.24,34.99,43.24,39.13z"/>
	</g>
	<g>
		<path class="st1" d="M50.85,31.52c-0.06,0-0.12,0.01-0.17,0.01v15.2c0.06,0,0.12,0.01,0.17,0.01c4.2,0,7.61-3.41,7.61-7.61
			S55.05,31.52,50.85,31.52z"/>
	</g>
	<g>
		<path class="st4" d="M50.85,48.05c-4.92,0-8.92-4-8.92-8.92s4-8.92,8.92-8.92s8.92,4,8.92,8.92S55.76,48.05,50.85,48.05z
			 M50.85,31.57c-4.17,0-7.56,3.39-7.56,7.56s3.39,7.56,7.56,7.56c4.17,0,7.56-3.39,7.56-7.56S55.02,31.57,50.85,31.57z"/>
	</g>
	<g>
		<path class="st3" d="M50.57,43.12c-0.18,0-0.35-0.07-0.48-0.2l-2.94-2.94c-0.26-0.26-0.26-0.69,0-0.96s0.69-0.26,0.96,0l2.43,2.43
			l4.59-5.26c0.24-0.28,0.67-0.31,0.96-0.07c0.28,0.25,0.31,0.67,0.07,0.96l-5.07,5.81c-0.12,0.14-0.3,0.23-0.49,0.23
			C50.58,43.12,50.57,43.12,50.57,43.12z"/>
	</g>
	<g>
		<path class="st4" d="M25.63,47.81v-8.53l-9.75-0.08C15.88,39.2,25.06,47.81,25.63,47.81z"/>
	</g>
	<g>
		<path class="st4" d="M75.9,47.81v-8.53l9.75-0.08C85.65,39.2,76.47,47.81,75.9,47.81z"/>
	</g>
</g>
</svg>
