<?xml version="1.0" encoding="utf-8"?>
<!-- Generator: Adobe Illustrator 23.0.6, SVG Export Plug-In . SVG Version: 6.00 Build 0)  -->
<svg version="1.1" id="Layer_1" xmlns="http://www.w3.org/2000/svg" xmlns:xlink="http://www.w3.org/1999/xlink" x="0px" y="0px"
	 viewBox="0 0 45.41 41" style="enable-background:new 0 0 45.41 41;" xml:space="preserve">
<style type="text/css">
	.st0{fill:#F49C6C;}
	.st1{fill:#FACCAC;}
	.st2{fill:#F1DACF;}
	.st3{fill:#EF5B24;}
</style>
<g>
	<g>
		<g>
			<path class="st0" d="M22.82,7.75L4.65,20.51v19.98h5.76V24.37h7.98v16.07h22.59V20.73L22.82,7.75z M34.79,33.87h-9.45v-9.45h9.45
				V33.87z"/>
		</g>
		<g>
			<path class="st1" d="M42.78,17.91L22.73,4.09L2.49,17.69c-0.85,0.57-1.99-0.04-1.99-1.06v-1.35L22.73,0.34l22.19,15.31
				c0,0-0.02,0.52-0.03,1.18C44.87,17.9,43.66,18.52,42.78,17.91z"/>
		</g>
		<g>
			<polygon class="st2" points="38.7,1.29 33.49,1.29 33.49,7.59 38.7,11.39 			"/>
		</g>
	</g>
	<g>
		<rect x="10.59" y="24.71" class="st2" width="7.58" height="15.76"/>
		<path class="st3" d="M18.67,40.97h-8.58V24.21h8.58V40.97z M11.09,39.97h6.58V25.21h-6.58V39.97z"/>
	</g>
	<g>
		<path class="st0" d="M3.52,6.01c-0.28,0-0.5-0.22-0.5-0.5c0-1.02-0.75-1.86-1.73-2C1.2,3.52,1.1,3.52,1.01,3.52
			c-0.28,0-0.5-0.22-0.5-0.5c0-0.01,0-0.01,0-0.02s0-0.01,0-0.02c0-0.28,0.22-0.5,0.5-0.5c0.1,0,0.19,0,0.28,0.01
			c0.98-0.14,1.73-0.98,1.73-2c0-0.28,0.22-0.5,0.5-0.5s0.5,0.22,0.5,0.5c0,1,0.79,1.86,1.79,2C5.9,2.49,6,2.49,6.09,2.49
			c0.28,0,0.5,0.22,0.5,0.5s-0.22,0.53-0.5,0.53c-0.1,0-0.19,0-0.29-0.01c-0.99,0.14-1.79,1-1.79,2C4.02,5.78,3.8,6.01,3.52,6.01z
			 M2.69,3c0.33,0.22,0.62,0.51,0.84,0.85C3.75,3.52,4.04,3.23,4.38,3C4.04,2.78,3.75,2.49,3.53,2.16C3.31,2.49,3.02,2.78,2.69,3z"
			/>
	</g>
	<g>
		<g>
			<path class="st3" d="M10.91,41H4.15V20.25L22.82,7.14l18.66,13.33v20.47H17.89V24.87h-6.98V41z M5.15,40h4.76V23.87h8.98v16.07
				h21.59V20.99L22.81,8.37L5.15,20.77V40z"/>
		</g>
		<g>
			<path class="st3" d="M43.45,18.57c-0.38,0-0.76-0.12-1.1-0.35L23.26,5.06c-0.32-0.22-0.74-0.23-1.07-0.01L3.04,17.93
				c-0.6,0.4-1.37,0.44-2,0.1C0.4,17.69,0,17.03,0,16.31v-0.26c0-0.65,0.32-1.25,0.86-1.62L21.64,0.48
				c0.67-0.45,1.53-0.44,2.19,0.01l20.73,14.3c0.54,0.38,0.86,0.99,0.84,1.65l-0.01,0.22c-0.02,0.73-0.42,1.36-1.06,1.69
				C44.05,18.5,43.75,18.57,43.45,18.57z M42.92,17.4c0.29,0.2,0.65,0.22,0.97,0.06c0.32-0.16,0.51-0.47,0.52-0.82l0.01-0.22
				c0.01-0.32-0.14-0.62-0.41-0.8L23.26,1.31c-0.32-0.22-0.74-0.22-1.07-0.01L1.42,15.27C1.16,15.44,1,15.74,1,16.05v0.26
				c0,0.36,0.19,0.67,0.5,0.84c0.31,0.17,0.68,0.15,0.97-0.05L21.64,4.22c0.67-0.45,1.53-0.44,2.19,0.01L42.92,17.4z"/>
		</g>
		<g>
			<path class="st3" d="M39.2,12.37l-6.21-4.53V0.79h6.21V12.37z M33.99,7.34l4.21,3.07V1.79h-4.21V7.34z"/>
		</g>
	</g>
	<g>
		<rect x="25.34" y="24.42" class="st1" width="9.45" height="9.45"/>
		<path class="st3" d="M35.29,34.37H24.84V23.92h10.45V34.37z M25.84,33.37h8.45v-8.45h-8.45V33.37z"/>
	</g>
</g>
</svg>
