<?xml version="1.0" encoding="utf-8"?>
<!-- Generator: Adobe Illustrator 23.0.6, SVG Export Plug-In . SVG Version: 6.00 Build 0)  -->
<svg version="1.1" id="Layer_1" xmlns="http://www.w3.org/2000/svg" xmlns:xlink="http://www.w3.org/1999/xlink" x="0px" y="0px"
	 viewBox="0 0 101.69 99.08" style="enable-background:new 0 0 101.69 99.08;" xml:space="preserve">
<style type="text/css">
	.st0{fill:#F49C6C;}
	.st1{fill:#FACCAC;}
	.st2{fill:#F1DACF;}
	.st3{fill:#EF5B24;}
</style>
<g>
	<g>
		<g>
			<polygon class="st0" points="32.87,55.98 22.34,64.45 22.34,82.59 46.88,82.59 46.88,66.84 54.81,66.84 54.81,82.74 79.03,82.74 
				79.03,64.35 68.82,56.53 68.82,42.52 51.01,30.36 32.87,42.41 			"/>
		</g>
		<g>
			<polygon class="st1" points="26.57,39.8 51.01,23.41 75.01,40.02 73.16,42.41 50.9,27.21 28.53,42.3 			"/>
		</g>
		<g>
			<polygon class="st0" points="29.61,55.12 29.61,51.31 15.71,61.52 17.34,64.56 			"/>
		</g>
		<g>
			<polygon class="st0" points="72.08,55.12 72.08,51.31 85.98,61.52 84.35,64.56 			"/>
		</g>
		<g>
			<path class="st2" d="M59.37,28.92v-9.66h6.73v14.49C66.1,33.75,59.21,29.08,59.37,28.92z"/>
		</g>
	</g>
	<g>
		<g>
			<path class="st3" d="M79.02,83.09H54.8c-0.13,0-0.26-0.05-0.35-0.15s-0.15-0.22-0.15-0.35l0.01-15.25h-6.93v15.25
				c0,0.28-0.22,0.5-0.5,0.5H22.34c-0.28,0-0.5-0.22-0.5-0.5V64.46c0-0.15,0.07-0.29,0.19-0.39l10.35-8.32V42.41
				c0-0.17,0.08-0.32,0.22-0.42l18.14-12.05c0.17-0.11,0.39-0.11,0.56,0L69.1,42.11c0.14,0.09,0.22,0.25,0.22,0.41v13.76l10.01,7.67
				c0.12,0.09,0.2,0.24,0.2,0.4l-0.01,18.25C79.52,82.87,79.29,83.09,79.02,83.09z M55.3,82.09h23.22l0.01-17.5l-10.01-7.67
				c-0.12-0.09-0.2-0.24-0.2-0.4V42.78L51,30.96L33.37,42.68v13.31c0,0.15-0.07,0.29-0.19,0.39l-10.35,8.32v17.4h23.54V66.84
				c0-0.28,0.22-0.5,0.5-0.5h7.93c0.13,0,0.26,0.05,0.35,0.15s0.15,0.22,0.15,0.35L55.3,82.09z"/>
		</g>
		<g>
			<path class="st3" d="M73.16,42.91c-0.1,0-0.2-0.03-0.28-0.09L50.9,27.81L28.81,42.72c-0.22,0.15-0.51,0.1-0.67-0.11l-1.96-2.5
				c-0.09-0.11-0.12-0.25-0.1-0.39c0.02-0.14,0.1-0.26,0.22-0.34l24.43-16.4c0.17-0.11,0.4-0.11,0.56,0l24,16.62
				c0.11,0.08,0.19,0.2,0.21,0.33c0.02,0.14-0.01,0.27-0.1,0.38l-1.85,2.39C73.46,42.84,73.31,42.91,73.16,42.91z M50.9,26.71
				c0.1,0,0.2,0.03,0.28,0.09l21.87,14.94l1.24-1.6L51,24.01L27.3,39.92l1.34,1.71l21.99-14.83C50.7,26.73,50.8,26.71,50.9,26.71z"
				/>
		</g>
		<g>
			<path class="st3" d="M17.34,65.06c-0.04,0-0.07,0-0.1-0.01c-0.14-0.03-0.27-0.12-0.34-0.25l-1.63-3.04
				c-0.12-0.22-0.06-0.49,0.14-0.64l13.9-10.21c0.15-0.11,0.35-0.13,0.52-0.04c0.17,0.09,0.27,0.26,0.27,0.45v3.8
				c0,0.16-0.07,0.3-0.2,0.4l-12.27,9.45C17.56,65.03,17.45,65.06,17.34,65.06z M16.36,61.67l1.15,2.14l11.61-8.94V52.3L16.36,61.67
				z"/>
		</g>
		<g>
			<path class="st3" d="M84.35,65.06c-0.11,0-0.22-0.04-0.3-0.1l-12.27-9.45c-0.12-0.09-0.2-0.24-0.2-0.4v-3.8
				c0-0.19,0.11-0.36,0.27-0.45c0.17-0.08,0.37-0.07,0.52,0.04l13.9,10.21c0.2,0.15,0.26,0.42,0.14,0.64l-1.63,3.04
				c-0.07,0.13-0.19,0.22-0.34,0.25C84.42,65.06,84.38,65.06,84.35,65.06z M72.58,54.87l11.61,8.94l1.15-2.14L72.58,52.3V54.87z"/>
		</g>
		<g>
			<path class="st3" d="M66.1,34.25c-0.1,0-0.2-0.03-0.28-0.09c-6.91-4.68-6.93-4.9-6.95-5.19c0-0.03,0-0.06,0-0.1v-9.62
				c0-0.28,0.22-0.5,0.5-0.5h6.73c0.28,0,0.5,0.22,0.5,0.5v14.49c0,0.19-0.1,0.35-0.27,0.44C66.26,34.23,66.18,34.25,66.1,34.25z
				 M59.87,28.74c0.58,0.5,3.18,2.33,5.73,4.07V19.76h-5.73V28.74z"/>
		</g>
	</g>
	<g>
		<rect x="62.68" y="66.63" class="st2" width="9.71" height="9.71"/>
		<path class="st3" d="M72.89,76.84H62.18V66.13h10.71V76.84z M63.18,75.84h8.71v-8.71h-8.71V75.84z"/>
	</g>
	<g>
		<rect x="29.88" y="66.63" class="st2" width="9.71" height="9.71"/>
		<path class="st3" d="M40.09,76.84H29.38V66.13h10.71V76.84z M30.38,75.84h8.71v-8.71h-8.71V75.84z"/>
	</g>
	<g>
		<g>
			<rect x="38.01" y="43.17" class="st2" width="9.71" height="9.71"/>
			<path class="st3" d="M48.22,53.38H37.51V42.67h10.71V53.38z M38.51,52.38h8.71v-8.71h-8.71V52.38z"/>
		</g>
		<g>
			<rect x="53.65" y="43.17" class="st2" width="9.71" height="9.71"/>
			<path class="st3" d="M63.86,53.38H53.15V42.67h10.71V53.38z M54.15,52.38h8.71v-8.71h-8.71V52.38z"/>
		</g>
	</g>
	<g>
		<path class="st0" d="M24.42,32.33c-0.28,0-0.5-0.22-0.5-0.5c0-1.02-0.75-1.86-1.73-2c-0.09,0.01-0.19,0.01-0.28,0.01
			c-0.28,0-0.5-0.22-0.5-0.5c0-0.01,0-0.01,0-0.02s0-0.01,0-0.02c0-0.28,0.22-0.5,0.5-0.5c0.1,0,0.19,0,0.28,0.01
			c0.98-0.14,1.73-0.98,1.73-2c0-0.28,0.22-0.5,0.5-0.5s0.5,0.22,0.5,0.5c0,1,0.79,1.86,1.79,2c0.09-0.01,0.19-0.01,0.29-0.01
			c0.28,0,0.5,0.22,0.5,0.5s-0.22,0.53-0.5,0.53c-0.1,0-0.19,0-0.29-0.01c-0.99,0.14-1.79,1-1.79,2
			C24.92,32.11,24.69,32.33,24.42,32.33z M23.59,29.33c0.33,0.22,0.62,0.51,0.84,0.85c0.22-0.33,0.51-0.62,0.85-0.85
			c-0.34-0.22-0.63-0.51-0.85-0.85C24.2,28.82,23.92,29.11,23.59,29.33z"/>
	</g>
	<g>
		<path class="st0" d="M34.51,22c-0.28,0-0.5-0.22-0.5-0.5c0-1.02-0.75-1.86-1.73-2c-0.09,0.01-0.19,0.01-0.28,0.01
			c-0.28,0-0.5-0.22-0.5-0.5c0-0.01,0-0.01,0-0.02s0-0.01,0-0.02c0-0.28,0.22-0.5,0.5-0.5c0.1,0,0.19,0,0.28,0.01
			c0.98-0.14,1.73-0.98,1.73-2c0-0.28,0.22-0.5,0.5-0.5s0.5,0.22,0.5,0.5c0,1,0.79,1.86,1.79,2c0.09-0.01,0.19-0.01,0.29-0.01
			c0.28,0,0.5,0.22,0.5,0.5s-0.22,0.53-0.5,0.53c-0.1,0-0.19,0-0.29-0.01c-0.99,0.14-1.79,1-1.79,2C35.01,21.77,34.79,22,34.51,22z
			 M33.68,18.99c0.33,0.22,0.62,0.51,0.84,0.85c0.22-0.33,0.51-0.62,0.85-0.85c-0.34-0.22-0.63-0.51-0.85-0.85
			C34.3,18.48,34.01,18.77,33.68,18.99z"/>
	</g>
	<g>
		<path class="st0" d="M80.51,33.33c-0.28,0-0.5-0.22-0.5-0.5c0-1.02-0.75-1.86-1.73-2c-0.09,0.01-0.19,0.01-0.28,0.01
			c-0.28,0-0.5-0.22-0.5-0.5c0-0.01,0-0.01,0-0.02s0-0.01,0-0.02c0-0.28,0.22-0.5,0.5-0.5c0.1,0,0.19,0,0.28,0.01
			c0.98-0.14,1.73-0.98,1.73-2c0-0.28,0.22-0.5,0.5-0.5s0.5,0.22,0.5,0.5c0,1,0.79,1.86,1.79,2c0.09-0.01,0.19-0.01,0.29-0.01
			c0.28,0,0.5,0.22,0.5,0.5s-0.22,0.53-0.5,0.53c-0.1,0-0.19,0-0.29-0.01c-0.99,0.14-1.79,1-1.79,2
			C81.01,33.11,80.79,33.33,80.51,33.33z M79.68,30.33c0.33,0.22,0.62,0.51,0.84,0.85c0.22-0.33,0.51-0.62,0.85-0.85
			c-0.34-0.22-0.63-0.51-0.85-0.85C80.3,29.81,80.01,30.1,79.68,30.33z"/>
	</g>
	<g>
		<rect x="46.74" y="66.95" class="st2" width="8.04" height="15.64"/>
		<path class="st3" d="M54.78,83.09h-8.04c-0.28,0-0.5-0.22-0.5-0.5V66.95c0-0.28,0.22-0.5,0.5-0.5h8.04c0.28,0,0.5,0.22,0.5,0.5
			v15.64C55.28,82.87,55.05,83.09,54.78,83.09z M47.24,82.09h7.04V67.45h-7.04V82.09z"/>
	</g>
</g>
</svg>
