<?xml version="1.0" encoding="utf-8"?>
<!-- Generator: Adobe Illustrator 23.0.6, SVG Export Plug-In . SVG Version: 6.00 Build 0)  -->
<svg version="1.1" id="Layer_1" xmlns="http://www.w3.org/2000/svg" xmlns:xlink="http://www.w3.org/1999/xlink" x="0px" y="0px"
	 viewBox="0 0 78.68 79.08" style="enable-background:new 0 0 78.68 79.08;" xml:space="preserve">
<style type="text/css">
	.st0{fill:#F1DACF;}
	.st1{fill:#F49C6C;stroke:#EF5B24;stroke-miterlimit:10;}
	.st2{fill:#F1DACF;stroke:#EF5B24;stroke-linejoin:round;stroke-miterlimit:10;}
	.st3{fill:#FACCAC;stroke:#EF5B24;stroke-miterlimit:10;}
	.st4{fill:none;stroke:#EF5B24;stroke-miterlimit:10;}
	.st5{fill:#F1DACF;stroke:#EF5B24;stroke-miterlimit:10;}
	.st6{fill:none;stroke:#EF5B24;stroke-linecap:round;stroke-miterlimit:10;}
	.st7{fill:#FACCAC;stroke:#EF5B24;stroke-linecap:round;stroke-miterlimit:10;}
	.st8{fill:#EF5B24;}
	.st9{fill:#F49C6C;}
</style>
<g>
	<g>
		<g>
			<g>
				<g>
					<path class="st0" d="M39.34,24.8c-0.4,0-0.72-16.06-0.72-16.06c0-0.4,0.32-0.72,0.72-0.72c0.4,0,0.72,0.32,0.72,0.72
						C40.06,8.74,39.73,24.8,39.34,24.8z"/>
				</g>
				<g>
					<path class="st0" d="M39.34,5.31c-0.4,0-0.72-4.6-0.72-4.6c0-0.4,0.32-0.72,0.72-0.72c0.4,0,0.72,0.32,0.72,0.72
						C40.06,0.72,39.73,5.31,39.34,5.31z"/>
				</g>
			</g>
			<g>
				<g>
					<path class="st0" d="M32.07,26.75c-0.34,0.2-8.65-13.55-8.65-13.55c-0.2-0.34-0.08-0.78,0.26-0.98
						c0.34-0.2,0.78-0.08,0.98,0.26C24.66,12.48,32.41,26.55,32.07,26.75z"/>
				</g>
				<g>
					<path class="st0" d="M22.33,9.87c-0.34,0.2-2.92-3.62-2.92-3.62c-0.2-0.34-0.08-0.78,0.26-0.98c0.34-0.2,0.78-0.08,0.98,0.26
						C20.65,5.53,22.67,9.67,22.33,9.87z"/>
				</g>
			</g>
			<g>
				<g>
					<path class="st0" d="M26.75,32.07c-0.2,0.34-14.27-7.41-14.27-7.41c-0.34-0.2-0.46-0.64-0.26-0.98
						c0.2-0.34,0.64-0.46,0.98-0.26C13.2,23.42,26.95,31.73,26.75,32.07z"/>
				</g>
				<g>
					<path class="st0" d="M9.87,22.33c-0.2,0.34-4.34-1.68-4.34-1.68c-0.34-0.2-0.46-0.64-0.26-0.98c0.2-0.34,0.64-0.46,0.98-0.26
						C6.25,19.41,10.07,21.98,9.87,22.33z"/>
				</g>
			</g>
			<g>
				<g>
					<path class="st0" d="M24.8,39.34c0,0.4-16.06,0.72-16.06,0.72c-0.4,0-0.72-0.32-0.72-0.72c0-0.4,0.32-0.72,0.72-0.72
						C8.74,38.62,24.8,38.94,24.8,39.34z"/>
				</g>
				<g>
					<path class="st0" d="M5.31,39.34c0,0.4-4.6,0.72-4.6,0.72c-0.4,0-0.72-0.32-0.72-0.72c0-0.4,0.32-0.72,0.72-0.72
						C0.72,38.62,5.31,38.94,5.31,39.34z"/>
				</g>
			</g>
			<g>
				<g>
					<path class="st0" d="M26.75,46.61c0.2,0.34-13.55,8.65-13.55,8.65c-0.34,0.2-0.78,0.08-0.98-0.26
						c-0.2-0.34-0.08-0.78,0.26-0.98C12.48,54.02,26.55,46.27,26.75,46.61z"/>
				</g>
				<g>
					<path class="st0" d="M9.87,56.35c0.2,0.34-3.62,2.92-3.62,2.92c-0.34,0.2-0.78,0.08-0.98-0.26c-0.2-0.34-0.08-0.78,0.26-0.98
						C5.53,58.03,9.67,56.01,9.87,56.35z"/>
				</g>
			</g>
			<g>
				<g>
					<path class="st0" d="M32.07,51.93c0.34,0.2-7.41,14.27-7.41,14.27c-0.2,0.34-0.64,0.46-0.98,0.26
						c-0.34-0.2-0.46-0.64-0.26-0.98C23.42,65.48,31.73,51.73,32.07,51.93z"/>
				</g>
				<g>
					<path class="st0" d="M22.33,68.81c0.34,0.2-1.68,4.34-1.68,4.34c-0.2,0.34-0.64,0.46-0.98,0.26c-0.34-0.2-0.46-0.64-0.26-0.98
						C19.41,72.43,21.98,68.61,22.33,68.81z"/>
				</g>
			</g>
			<g>
				<g>
					<path class="st0" d="M39.34,53.88c0.4,0,0.72,16.06,0.72,16.06c0,0.4-0.32,0.72-0.72,0.72c-0.4,0-0.72-0.32-0.72-0.72
						C38.62,69.94,38.94,53.88,39.34,53.88z"/>
				</g>
			</g>
			<g>
				<g>
					<path class="st0" d="M46.61,51.93c0.34-0.2,8.65,13.55,8.65,13.55c0.2,0.34,0.08,0.78-0.26,0.98c-0.34,0.2-0.78,0.08-0.98-0.26
						C54.02,66.2,46.27,52.13,46.61,51.93z"/>
				</g>
				<g>
					<path class="st0" d="M56.35,68.81c0.34-0.2,2.92,3.62,2.92,3.62c0.2,0.34,0.08,0.78-0.26,0.98c-0.34,0.2-0.78,0.08-0.98-0.26
						C58.03,73.15,56.01,69,56.35,68.81z"/>
				</g>
			</g>
			<g>
				<g>
					<path class="st0" d="M51.93,46.61c0.2-0.34,14.27,7.41,14.27,7.41c0.34,0.2,0.46,0.64,0.26,0.98c-0.2,0.34-0.64,0.46-0.98,0.26
						C65.48,55.26,51.73,46.95,51.93,46.61z"/>
				</g>
				<g>
					<path class="st0" d="M68.81,56.35c0.2-0.34,4.34,1.68,4.34,1.68c0.34,0.2,0.46,0.64,0.26,0.98c-0.2,0.34-0.64,0.46-0.98,0.26
						C72.43,59.27,68.61,56.69,68.81,56.35z"/>
				</g>
			</g>
			<g>
				<g>
					<path class="st0" d="M53.88,39.34c0-0.4,16.06-0.72,16.06-0.72c0.4,0,0.72,0.32,0.72,0.72s-0.32,0.72-0.72,0.72
						C69.94,40.06,53.88,39.73,53.88,39.34z"/>
				</g>
				<g>
					<path class="st0" d="M73.37,39.34c0-0.4,4.6-0.72,4.6-0.72c0.4,0,0.72,0.32,0.72,0.72s-0.32,0.72-0.72,0.72
						C77.96,40.06,73.37,39.73,73.37,39.34z"/>
				</g>
			</g>
			<g>
				<g>
					<path class="st0" d="M51.93,32.07c-0.2-0.34,13.55-8.65,13.55-8.65c0.34-0.2,0.78-0.08,0.98,0.26c0.2,0.34,0.08,0.78-0.26,0.98
						C66.2,24.66,52.13,32.41,51.93,32.07z"/>
				</g>
				<g>
					<path class="st0" d="M68.81,22.33c-0.2-0.34,3.62-2.92,3.62-2.92c0.34-0.2,0.78-0.08,0.98,0.26s0.08,0.78-0.26,0.98
						C73.15,20.65,69,22.67,68.81,22.33z"/>
				</g>
			</g>
			<g>
				<g>
					<path class="st0" d="M46.61,26.75c-0.34-0.2,7.41-14.27,7.41-14.27c0.2-0.34,0.64-0.46,0.98-0.26c0.34,0.2,0.46,0.64,0.26,0.98
						C55.26,13.2,46.95,26.95,46.61,26.75z"/>
				</g>
				<g>
					<path class="st0" d="M56.35,9.87c-0.34-0.2,1.68-4.34,1.68-4.34c0.2-0.34,0.64-0.46,0.98-0.26c0.34,0.2,0.46,0.64,0.26,0.98
						C59.27,6.25,56.69,10.07,56.35,9.87z"/>
				</g>
			</g>
		</g>
		<g>
			<g>
				<g>
					<path class="st0" d="M42.55,26.94c-0.34-0.09,2.06-10.35,2.06-10.35c0.09-0.34,0.43-0.54,0.77-0.45
						c0.34,0.09,0.54,0.43,0.45,0.77C45.83,16.91,42.89,27.03,42.55,26.94z"/>
				</g>
				<g>
					<path class="st0" d="M45.74,14.78c-0.34-0.09,0.18-3.19,0.18-3.19c0.09-0.34,0.43-0.54,0.77-0.45
						c0.34,0.09,0.54,0.43,0.45,0.77C47.14,11.91,46.07,14.87,45.74,14.78z"/>
				</g>
			</g>
			<g>
				<g>
					<path class="st0" d="M35.92,27c-0.34,0.09-3.39-9.99-3.39-9.99c-0.09-0.34,0.11-0.68,0.44-0.77c0.34-0.09,0.68,0.11,0.77,0.44
						C33.75,16.67,36.26,26.9,35.92,27z"/>
				</g>
				<g>
					<path class="st0" d="M32.6,14.87c-0.34,0.09-1.44-2.86-1.44-2.86c-0.09-0.34,0.11-0.68,0.44-0.77
						c0.34-0.09,0.68,0.11,0.77,0.44C32.38,11.68,32.94,14.78,32.6,14.87z"/>
				</g>
			</g>
			<g>
				<g>
					<path class="st0" d="M30.21,30.36c-0.24,0.25-7.93-6.96-7.93-6.96c-0.25-0.24-0.25-0.64,0-0.89c0.24-0.25,0.64-0.25,0.89,0
						C23.16,22.51,30.45,30.11,30.21,30.36z"/>
				</g>
				<g>
					<path class="st0" d="M21.27,21.52c-0.24,0.25-2.67-1.76-2.67-1.76c-0.25-0.24-0.25-0.64,0-0.89c0.24-0.25,0.64-0.25,0.89,0
						C19.48,18.87,21.51,21.27,21.27,21.52z"/>
				</g>
			</g>
			<g>
				<g>
					<path class="st0" d="M26.94,36.13c-0.09,0.34-10.35-2.06-10.35-2.06c-0.34-0.09-0.54-0.43-0.45-0.77
						c0.09-0.34,0.43-0.54,0.77-0.45C16.91,32.85,27.03,35.79,26.94,36.13z"/>
				</g>
				<g>
					<path class="st0" d="M14.78,32.94c-0.09,0.34-3.19-0.18-3.19-0.18c-0.34-0.09-0.54-0.43-0.45-0.77
						c0.09-0.34,0.43-0.54,0.77-0.45C11.91,31.54,14.87,32.61,14.78,32.94z"/>
				</g>
			</g>
			<g>
				<g>
					<path class="st0" d="M27,42.76c0.09,0.34-9.99,3.39-9.99,3.39c-0.34,0.09-0.68-0.11-0.77-0.44c-0.09-0.34,0.11-0.68,0.44-0.77
						C16.67,44.93,26.9,42.42,27,42.76z"/>
				</g>
				<g>
					<path class="st0" d="M14.87,46.08c0.09,0.34-2.86,1.44-2.86,1.44c-0.34,0.09-0.68-0.11-0.77-0.44
						c-0.09-0.34,0.11-0.68,0.44-0.77C11.68,46.3,14.78,45.74,14.87,46.08z"/>
				</g>
			</g>
			<g>
				<g>
					<path class="st0" d="M30.36,48.47c0.25,0.24-6.96,7.93-6.96,7.93c-0.24,0.25-0.64,0.25-0.89,0c-0.25-0.24-0.25-0.64,0-0.89
						C22.51,55.51,30.11,48.23,30.36,48.47z"/>
				</g>
				<g>
					<path class="st0" d="M21.52,57.41c0.25,0.24-1.76,2.67-1.76,2.67c-0.24,0.25-0.64,0.25-0.89,0c-0.25-0.24-0.25-0.64,0-0.89
						C18.87,59.2,21.27,57.16,21.52,57.41z"/>
				</g>
			</g>
			<g>
				<g>
					<path class="st0" d="M36.13,51.74c0.34,0.09-2.06,10.35-2.06,10.35c-0.09,0.34-0.43,0.54-0.77,0.45
						c-0.34-0.09-0.54-0.43-0.45-0.77C32.85,61.76,35.79,51.65,36.13,51.74z"/>
				</g>
				<g>
					<path class="st0" d="M32.94,63.9c0.34,0.09-0.18,3.19-0.18,3.19c-0.09,0.34-0.43,0.54-0.77,0.45
						c-0.34-0.09-0.54-0.43-0.45-0.77C31.54,66.77,32.61,63.81,32.94,63.9z"/>
				</g>
			</g>
			<g>
				<g>
					<path class="st0" d="M42.76,51.68c0.34-0.09,3.39,9.99,3.39,9.99c0.09,0.34-0.11,0.68-0.44,0.77
						c-0.34,0.09-0.68-0.11-0.77-0.44C44.93,62,42.42,51.77,42.76,51.68z"/>
				</g>
				<g>
					<path class="st0" d="M46.08,63.81c0.34-0.09,1.44,2.86,1.44,2.86c0.09,0.34-0.11,0.68-0.44,0.77
						c-0.34,0.09-0.68-0.11-0.77-0.44C46.3,67,45.74,63.9,46.08,63.81z"/>
				</g>
			</g>
			<g>
				<g>
					<path class="st0" d="M48.47,48.32c0.24-0.25,7.93,6.96,7.93,6.96c0.25,0.24,0.25,0.64,0,0.89c-0.24,0.25-0.64,0.25-0.89,0
						C55.51,56.17,48.23,48.57,48.47,48.32z"/>
				</g>
				<g>
					<path class="st0" d="M57.41,57.16c0.24-0.25,2.67,1.76,2.67,1.76c0.25,0.24,0.25,0.64,0,0.89c-0.24,0.25-0.64,0.25-0.89,0
						C59.2,59.81,57.16,57.41,57.41,57.16z"/>
				</g>
			</g>
			<g>
				<g>
					<path class="st0" d="M51.74,42.55c0.09-0.34,10.35,2.06,10.35,2.06c0.34,0.09,0.54,0.43,0.45,0.77
						c-0.09,0.34-0.43,0.54-0.77,0.45C61.76,45.83,51.65,42.89,51.74,42.55z"/>
				</g>
				<g>
					<path class="st0" d="M63.9,45.74c0.09-0.34,3.19,0.18,3.19,0.18c0.34,0.09,0.54,0.43,0.45,0.77c-0.09,0.34-0.43,0.54-0.77,0.45
						C66.77,47.14,63.81,46.07,63.9,45.74z"/>
				</g>
			</g>
			<g>
				<g>
					<path class="st0" d="M51.68,35.92c-0.09-0.34,9.99-3.39,9.99-3.39c0.34-0.09,0.68,0.11,0.77,0.44
						c0.09,0.34-0.11,0.68-0.44,0.77C62,33.75,51.77,36.26,51.68,35.92z"/>
				</g>
				<g>
					<path class="st0" d="M63.81,32.6c-0.09-0.34,2.86-1.44,2.86-1.44c0.34-0.09,0.68,0.11,0.77,0.44c0.09,0.34-0.11,0.68-0.44,0.77
						C67,32.38,63.9,32.94,63.81,32.6z"/>
				</g>
			</g>
			<g>
				<g>
					<path class="st0" d="M48.32,30.21c-0.25-0.24,6.96-7.93,6.96-7.93c0.24-0.25,0.64-0.25,0.89,0c0.25,0.24,0.25,0.64,0,0.89
						C56.17,23.16,48.57,30.45,48.32,30.21z"/>
				</g>
				<g>
					<path class="st0" d="M57.16,21.27c-0.25-0.24,1.76-2.67,1.76-2.67c0.24-0.25,0.64-0.25,0.89,0c0.25,0.24,0.25,0.64,0,0.89
						C59.81,19.48,57.41,21.51,57.16,21.27z"/>
				</g>
			</g>
		</g>
	</g>
	<path class="st1" d="M66.38,58.02H13c-1.39,0-2.52-1.13-2.52-2.52V23.41c0-1.39,1.13-2.52,2.52-2.52h53.38
		c1.39,0,2.52,1.13,2.52,2.52V55.5C68.9,56.89,67.78,58.02,66.38,58.02z"/>
	<rect x="13.41" y="24.09" class="st2" width="52.56" height="30.72"/>
	<g>
		<circle class="st3" cx="24.52" cy="35.46" r="8.14"/>
		<g>
			<path class="st4" d="M20.24,42.39v-1.28c0-1.99,1.63-3.62,3.62-3.62h1.54c1.99,0,3.62,1.63,3.62,3.62v1.13"/>
		</g>
		<circle class="st5" cx="24.43" cy="33.13" r="2.52"/>
	</g>
	<line class="st6" x1="36.29" y1="35.71" x2="61.78" y2="35.71"/>
	<line class="st6" x1="36.29" y1="39.53" x2="61.78" y2="39.53"/>
	<line class="st6" x1="36.29" y1="43.36" x2="61.78" y2="43.36"/>
	<path class="st7" d="M61.12,32.2H36.95c-0.38,0-0.68-0.31-0.68-0.68v-3.19c0-0.38,0.31-0.68,0.68-0.68h24.17
		c0.38,0,0.68,0.31,0.68,0.68v3.19C61.8,31.9,61.5,32.2,61.12,32.2z"/>
	<g>
		<path class="st8" d="M23.38,47.09c0,0.14-0.07,0.32-0.07,0.32l-1.51,3.89c-0.1,0.26-0.36,0.5-0.78,0.5c-0.41,0-0.67-0.24-0.77-0.5
			l-1.51-3.89c0,0-0.07-0.18-0.07-0.32c0-0.29,0.22-0.5,0.5-0.5c0.25,0,0.42,0.18,0.5,0.4l1.33,3.6h0.04l1.33-3.6
			c0.08-0.22,0.25-0.4,0.5-0.4C23.16,46.59,23.38,46.81,23.38,47.09z"/>
		<path class="st8" d="M25.18,51.2c0,0.29-0.18,0.5-0.5,0.5c-0.32,0-0.5-0.22-0.5-0.5v-4.1c0-0.29,0.22-0.5,0.5-0.5
			s0.5,0.22,0.5,0.5V51.2z"/>
		<path class="st8" d="M28.35,46.63c1.22,0,2.02,0.79,2.02,1.73c0,0.94-0.79,1.73-2.02,1.73H27.2v1.12c0,0.29-0.22,0.5-0.5,0.5
			c-0.29,0-0.5-0.22-0.5-0.5v-4.07c0-0.29,0.22-0.5,0.5-0.5H28.35z M28.35,47.56H27.2v1.58h1.15c0.65,0,0.97-0.32,0.97-0.79
			C29.32,47.89,29,47.56,28.35,47.56z"/>
	</g>
	<line class="st6" x1="36.08" y1="46.62" x2="36.08" y2="51.43"/>
	<line class="st6" x1="38.28" y1="46.62" x2="38.28" y2="51.43"/>
	<line class="st6" x1="43.33" y1="46.62" x2="43.33" y2="51.43"/>
	<line class="st6" x1="45.53" y1="46.62" x2="45.53" y2="51.43"/>
	<line class="st6" x1="47.73" y1="46.62" x2="47.73" y2="51.43"/>
	<line class="st6" x1="49.93" y1="46.62" x2="49.93" y2="51.43"/>
	<line class="st6" x1="52.13" y1="46.62" x2="52.13" y2="51.43"/>
	<line class="st6" x1="56.55" y1="46.62" x2="56.55" y2="51.43"/>
	<line class="st6" x1="58.75" y1="46.62" x2="58.75" y2="51.43"/>
	<line class="st6" x1="60.95" y1="46.62" x2="60.95" y2="51.43"/>
	<g>
		<path class="st9" d="M10.44,12.92c-0.28,0-0.5-0.22-0.5-0.5c0-1.02-0.75-1.86-1.73-2c-0.09,0.01-0.19,0.01-0.28,0.01
			c-0.28,0-0.5-0.22-0.5-0.5c0-0.01,0-0.01,0-0.02s0-0.01,0-0.02c0-0.28,0.22-0.5,0.5-0.5c0.1,0,0.19,0,0.28,0.01
			c0.98-0.14,1.73-0.98,1.73-2c0-0.28,0.22-0.5,0.5-0.5s0.5,0.22,0.5,0.5c0,1,0.79,1.86,1.79,2c0.09-0.01,0.19-0.01,0.29-0.01
			c0.28,0,0.5,0.22,0.5,0.5s-0.22,0.53-0.5,0.53c-0.1,0-0.19,0-0.29-0.01c-0.99,0.14-1.79,1-1.79,2
			C10.94,12.7,10.72,12.92,10.44,12.92z M9.61,9.92c0.33,0.22,0.62,0.51,0.84,0.85c0.22-0.33,0.51-0.62,0.85-0.85
			c-0.34-0.22-0.63-0.51-0.85-0.85C10.23,9.4,9.94,9.69,9.61,9.92z"/>
	</g>
	<g>
		<path class="st9" d="M69.35,14.98c-0.28,0-0.5-0.22-0.5-0.5c0-1.02-0.75-1.86-1.73-2c-0.09,0.01-0.19,0.01-0.28,0.01
			c-0.28,0-0.5-0.22-0.5-0.5c0-0.01,0-0.01,0-0.02s0-0.01,0-0.02c0-0.28,0.22-0.5,0.5-0.5c0.1,0,0.19,0,0.28,0.01
			c0.98-0.14,1.73-0.98,1.73-2c0-0.28,0.22-0.5,0.5-0.5s0.5,0.22,0.5,0.5c0,1,0.79,1.86,1.79,2c0.09-0.01,0.19-0.01,0.29-0.01
			c0.28,0,0.5,0.22,0.5,0.5s-0.22,0.53-0.5,0.53c-0.1,0-0.19,0-0.29-0.01c-0.99,0.14-1.79,1-1.79,2
			C69.85,14.76,69.63,14.98,69.35,14.98z M68.52,11.98c0.33,0.22,0.62,0.51,0.84,0.85c0.22-0.33,0.51-0.62,0.85-0.85
			c-0.34-0.22-0.63-0.51-0.85-0.85C69.14,11.47,68.85,11.75,68.52,11.98z"/>
	</g>
	<g>
		<path class="st9" d="M66.53,69.72c-0.28,0-0.5-0.22-0.5-0.5c0-1.02-0.75-1.86-1.73-2c-0.09,0.01-0.19,0.01-0.28,0.01
			c-0.28,0-0.5-0.22-0.5-0.5c0-0.01,0-0.01,0-0.02s0-0.01,0-0.02c0-0.28,0.22-0.5,0.5-0.5c0.1,0,0.19,0,0.28,0.01
			c0.98-0.14,1.73-0.98,1.73-2c0-0.28,0.22-0.5,0.5-0.5s0.5,0.22,0.5,0.5c0,1,0.79,1.86,1.79,2c0.09-0.01,0.19-0.01,0.29-0.01
			c0.28,0,0.5,0.22,0.5,0.5s-0.22,0.53-0.5,0.53c-0.1,0-0.19,0-0.29-0.01c-0.99,0.14-1.79,1-1.79,2
			C67.03,69.49,66.81,69.72,66.53,69.72z M65.7,66.71c0.33,0.22,0.62,0.51,0.84,0.85c0.22-0.33,0.51-0.62,0.85-0.85
			c-0.34-0.22-0.63-0.51-0.85-0.85C66.31,66.2,66.03,66.49,65.7,66.71z"/>
	</g>
	<g>
		<path class="st9" d="M39.58,79.08c-0.28,0-0.5-0.22-0.5-0.5c0-1.02-0.75-1.86-1.73-2c-0.09,0.01-0.19,0.01-0.28,0.01
			c-0.28,0-0.5-0.22-0.5-0.5c0-0.01,0-0.01,0-0.02s0-0.01,0-0.02c0-0.28,0.22-0.5,0.5-0.5c0.1,0,0.19,0,0.28,0.01
			c0.98-0.14,1.73-0.98,1.73-2c0-0.28,0.22-0.5,0.5-0.5s0.5,0.22,0.5,0.5c0,1,0.79,1.86,1.79,2c0.09-0.01,0.19-0.01,0.29-0.01
			c0.28,0,0.5,0.22,0.5,0.5s-0.22,0.53-0.5,0.53c-0.1,0-0.19,0-0.29-0.01c-0.99,0.14-1.79,1-1.79,2
			C40.08,78.85,39.86,79.08,39.58,79.08z M38.75,76.07c0.33,0.22,0.62,0.51,0.84,0.85c0.22-0.33,0.51-0.62,0.85-0.85
			c-0.34-0.22-0.63-0.51-0.85-0.85C39.36,75.56,39.08,75.85,38.75,76.07z"/>
	</g>
	<g>
		<path class="st9" d="M9.62,69.06c-0.28,0-0.5-0.22-0.5-0.5c0-1.02-0.75-1.86-1.73-2c-0.09,0.01-0.19,0.01-0.28,0.01
			c-0.28,0-0.5-0.22-0.5-0.5c0-0.01,0-0.01,0-0.02s0-0.01,0-0.02c0-0.28,0.22-0.5,0.5-0.5c0.1,0,0.19,0,0.28,0.01
			c0.98-0.14,1.73-0.98,1.73-2c0-0.28,0.22-0.5,0.5-0.5s0.5,0.22,0.5,0.5c0,1,0.79,1.86,1.79,2c0.09-0.01,0.19-0.01,0.29-0.01
			c0.28,0,0.5,0.22,0.5,0.5s-0.22,0.53-0.5,0.53c-0.1,0-0.19,0-0.29-0.01c-0.99,0.14-1.79,1-1.79,2
			C10.12,68.84,9.9,69.06,9.62,69.06z M8.79,66.06c0.33,0.22,0.62,0.51,0.84,0.85c0.22-0.33,0.51-0.62,0.85-0.85
			c-0.34-0.22-0.63-0.51-0.85-0.85C9.41,65.55,9.12,65.84,8.79,66.06z"/>
	</g>
</g>
</svg>
