<?xml version="1.0" encoding="utf-8"?>
<!-- Generator: Adobe Illustrator 23.0.6, SVG Export Plug-In . SVG Version: 6.00 Build 0)  -->
<svg version="1.1" id="Layer_1" xmlns="http://www.w3.org/2000/svg" xmlns:xlink="http://www.w3.org/1999/xlink" x="0px" y="0px"
	 viewBox="0 0 78.68 79.08" style="enable-background:new 0 0 78.68 79.08;" xml:space="preserve">
<style type="text/css">
	.st0{fill:#FACCAC;}
	.st1{fill:#EF5B24;}
	.st2{fill:#8393A3;stroke:#3F494C;stroke-miterlimit:10;}
	.st3{fill:#F1DACF;}
</style>
<g>
	<g>
		<path class="st0" d="M39.34,66.97c-15.13,0-27.43-12.31-27.43-27.43c0-15.13,12.31-27.43,27.43-27.43s27.43,12.31,27.43,27.43
			C66.77,54.66,54.47,66.97,39.34,66.97z"/>
		<path class="st1" d="M39.34,12.61c14.87,0,26.93,12.06,26.93,26.93c0,14.87-12.06,26.93-26.93,26.93
			c-14.87,0-26.93-12.06-26.93-26.93C12.41,24.66,24.47,12.61,39.34,12.61 M39.34,11.61c-15.4,0-27.93,12.53-27.93,27.93
			s12.53,27.93,27.93,27.93c15.4,0,27.93-12.53,27.93-27.93S54.74,11.61,39.34,11.61L39.34,11.61z"/>
	</g>
	<path class="st1" d="M25.16,44.02c0-1.25-1.02-2.27-2.27-2.27c-1.25,0-2.27,1.02-2.27,2.27c0,1.25,1.02,2.27,2.27,2.27
		C24.15,46.29,25.16,45.27,25.16,44.02z"/>
	<path class="st1" d="M58.05,44.02c0-1.25-1.02-2.27-2.27-2.27c-1.25,0-2.27,1.02-2.27,2.27c0,1.25,1.02,2.27,2.27,2.27
		C57.03,46.29,58.05,45.27,58.05,44.02z"/>
	<g>
		<path class="st1" d="M46.24,50.54c-0.24,0-0.47-0.1-0.64-0.29c-1.89-2.16-4.02-3.32-6.16-3.35c-2.09-0.02-4.18,1.01-6.05,3.01
			l-0.34,0.36c-0.32,0.34-0.86,0.36-1.2,0.04c-0.34-0.32-0.36-0.86-0.04-1.2l0.34-0.36c2.21-2.37,4.74-3.6,7.32-3.56
			c2.64,0.04,5.2,1.4,7.41,3.94c0.31,0.35,0.27,0.89-0.08,1.2C46.64,50.47,46.44,50.54,46.24,50.54z"/>
	</g>
	<path class="st2" d="M61.94,56.67c0-2.1-3.8-7.54-3.8-7.54s-3.8,5.44-3.8,7.54c0,2.1,1.7,3.8,3.8,3.8
		C60.24,60.47,61.94,58.77,61.94,56.67z"/>
	<g>
		<path class="st1" d="M18.08,39.77c-0.44,0-0.81-0.34-0.85-0.78c-0.04-0.47,0.31-0.88,0.78-0.92c0.06,0,6.36-0.59,8.38-4.64
			c0.21-0.42,0.72-0.59,1.14-0.38c0.42,0.21,0.59,0.72,0.38,1.14c-2.45,4.91-9.46,5.55-9.76,5.57
			C18.12,39.77,18.1,39.77,18.08,39.77z"/>
	</g>
	<g>
		<path class="st1" d="M60.6,39.77c-0.02,0-0.05,0-0.07,0c-0.3-0.02-7.31-0.66-9.76-5.57c-0.21-0.42-0.04-0.93,0.38-1.14
			c0.42-0.21,0.93-0.04,1.14,0.38c2.03,4.06,8.32,4.63,8.38,4.64c0.47,0.04,0.82,0.45,0.78,0.92C61.41,39.43,61.04,39.77,60.6,39.77
			z"/>
	</g>
	
		<ellipse transform="matrix(0.8883 -0.4594 0.4594 0.8883 -7.1712 16.069)" class="st3" cx="29.44" cy="22.77" rx="10.48" ry="3.72"/>
</g>
</svg>
