<?xml version="1.0" encoding="utf-8"?>
<!-- Generator: Adobe Illustrator 23.0.6, SVG Export Plug-In . SVG Version: 6.00 Build 0)  -->
<svg version="1.1" id="Layer_1" xmlns="http://www.w3.org/2000/svg" xmlns:xlink="http://www.w3.org/1999/xlink" x="0px" y="0px"
	 viewBox="0 0 101.69 99.08" style="enable-background:new 0 0 101.69 99.08;" xml:space="preserve">
<style type="text/css">
	.st0{fill:#F1DACF;}
	.st1{fill:#EF5B24;}
	.st2{fill:#F49C6C;}
	.st3{fill:#FACCAC;}
</style>
<g>
	<g>
		<g>
			<path class="st0" d="M48.85,78.26l-12.02,0c-1.89,0-3.8-0.67-5.43-1.68c-1.21-0.76-2.48-1.44-3.79-2.04
				c-0.42-0.19-0.86-0.38-1.29-0.55c-0.08-0.04,0,0.55,0,0.55v3.65c0,0.03-0.02,0.05-0.05,0.05H1.85c-0.83,0-1.47-0.75-1.33-1.57
				L6.11,43.6c0.1-0.57,0.59-0.98,1.16-0.98h19c0.03,0,0.05,0.02,0.05,0.05l0,4.79c0,0.04,0.05,0.07,0.09,0.05
				c9.38-5.74,15.64-16.09,15.64-27.91v-0.07c0-0.37-0.01-0.75-0.02-1.12c-0.02-0.91-0.34-1.96-0.14-2.86
				c0.39-1.77,2.62-2.91,4.29-2.91c1.23,0,2.33,0.47,3.17,1.25c0.52,0.83,1,1.68,1.43,2.55c2.25,4.45,3.51,9.48,3.51,14.81
				c0,3.02-0.41,5.94-1.16,8.72c-0.01,0.02-0.02,0.03-0.04,0.04L53.12,40c0.31-0.07,0.63-0.1,0.96-0.1h15.56
				c2.62,0,4.76,2.15,4.76,4.77c0,1.31-0.54,2.5-1.4,3.36c-0.86,0.86-2.05,1.4-3.36,1.4h-1c2.62,0,4.76,2.15,4.76,4.77
				c0,1.31-0.54,2.5-1.4,3.36c-0.86,0.87-2.05,1.4-3.36,1.4l-1.85,0.16c2.77,0,5.03,2.15,5.03,4.77c0,1.31-0.57,2.5-1.48,3.36
				c-0.91,0.86-1.72,1.4-5.72,1.4l-0.3,0.08c2.45,0,4.45,2.15,4.45,4.77c0,1.31-0.5,2.5-1.31,3.36c-0.8,0.87-1.92,1.4-3.14,1.4
				H49.78C49.78,78.26,49.24,78.26,48.85,78.26z"/>
		</g>
		<g>
			<rect x="25.82" y="47.5" width="1" height="29.54"/>
		</g>
		<g>
			<path class="st1" d="M26.32,73.99c-0.08-0.04,0,0.55,0,0.55v3.65c0,0.03-0.02,0.05-0.05,0.05H1.85c-0.83,0-1.47-0.75-1.33-1.57
				L6.11,43.6c0.1-0.57,0.59-0.98,1.16-0.98h19c0.03,0,0.05,0.02,0.05,0.05l0,4.79L26.32,73.99z"/>
			<path d="M26.27,78.74H1.85c-0.54,0-1.06-0.24-1.41-0.65s-0.5-0.96-0.41-1.5l5.59-33.07c0.14-0.81,0.83-1.4,1.65-1.4h19.5
				l0.05,0.55V74.8l0,0l0,3.89L26.27,78.74z M7.27,43.12c-0.33,0-0.61,0.24-0.67,0.56L1.01,76.75C0.97,77,1.04,77.25,1.2,77.44
				s0.4,0.3,0.65,0.3h23.98v-3.2c-0.04-0.31-0.06-0.53,0-0.7V43.12H7.27z"/>
		</g>
		<g>
			<path class="st2" d="M26.32,73.99c-0.03-0.04,0,0.55,0,0.55v3.65c0,0.03-0.01,0.05-0.02,0.05H16.03c-0.35,0-0.62-0.75-0.56-1.57
				l5.35-33.07c0.04-0.57,0.25-0.98,0.49-0.98h4.99c0.01,0,0.02,0.02,0.02,0.05v4.79V73.99z"/>
		</g>
		<g>
			<circle class="st3" cx="9.06" cy="70.42" r="5.21"/>
			<path class="st2" d="M9.06,76.13c-3.15,0-5.71-2.56-5.71-5.71s2.56-5.71,5.71-5.71c3.15,0,5.71,2.56,5.71,5.71
				S12.21,76.13,9.06,76.13z M9.06,65.71c-2.6,0-4.71,2.11-4.71,4.71s2.11,4.71,4.71,4.71s4.71-2.11,4.71-4.71
				S11.65,65.71,9.06,65.71z"/>
		</g>
		<g>
			
				<ellipse transform="matrix(0.7071 -0.7071 0.7071 0.7071 -46.7263 26.0284)" class="st2" cx="8.06" cy="69.42" rx="2.71" ry="1.53"/>
			<path class="st2" d="M6.91,72.12c-0.45,0-0.84-0.15-1.13-0.43c-0.42-0.42-0.54-1.07-0.33-1.82c0.18-0.65,0.6-1.32,1.17-1.89
				c0.57-0.57,1.24-0.99,1.89-1.17c0.75-0.21,1.39-0.09,1.81,0.33l0,0l0,0l0,0c0.42,0.42,0.54,1.07,0.33,1.81
				c-0.18,0.65-0.59,1.32-1.17,1.89s-1.25,0.99-1.89,1.17C7.36,72.09,7.13,72.12,6.91,72.12z M9.2,67.71
				c-0.12,0-0.26,0.02-0.42,0.06c-0.48,0.13-1.01,0.46-1.45,0.91c-0.45,0.45-0.78,0.98-0.91,1.45c-0.11,0.38-0.08,0.69,0.08,0.84
				c0.15,0.15,0.46,0.18,0.84,0.08c0.48-0.13,1.01-0.46,1.45-0.91c0.45-0.45,0.78-0.98,0.91-1.45c0.11-0.38,0.08-0.69-0.08-0.84l0,0
				C9.53,67.76,9.38,67.71,9.2,67.71z"/>
		</g>
		<g>
			<path class="st1" d="M26.27,78.74H1.85c-0.54,0-1.06-0.24-1.41-0.65s-0.5-0.96-0.41-1.5l5.59-33.07c0.14-0.81,0.83-1.4,1.65-1.4
				h19.5l0.05,0.55V74.8l0,0l0,3.89L26.27,78.74z M7.27,43.12c-0.33,0-0.61,0.24-0.67,0.56L1.01,76.75C0.97,77,1.04,77.25,1.2,77.44
				s0.4,0.3,0.65,0.3h23.98v-3.2c-0.04-0.31-0.06-0.53,0-0.7V43.12H7.27z"/>
		</g>
		<g>
			<path class="st3" d="M68.97,49.43c4.36,0.44,7.87-4.67,4.36-8.13c-2.24-2.21-6.54-1.4-9.38-1.4c0.59,0,1.12,0.08,1.59,0.22H45.37
				c-0.22,0-0.39,0.18-0.39,0.39c0,0.22,0.18,0.39,0.39,0.39h21.66c3.01,2.52,1.23,8.9-4.08,8.52c6.28,0,5.92,9.34-0.22,9.53
				c5.12,1.47,4.17,9.53-1.33,9.31c2.5,2.28,2.32,9.99-2.18,9.99c1.82,0,5.07,0.61,6.78-0.19c3.94-1.86,3.8-6.34,0.72-9.06
				c5.87,0.18,7.03-7.36,2.18-9.94c2.57-0.28,4.83-2.15,4.83-4.87C73.73,51.58,71.59,49.43,68.97,49.43z"/>
		</g>
		<g>
			<path class="st3" d="M54.36,31.65c0,2.98-0.43,5.87-1.23,8.58h-8.04c1.71-1.71,3.22-4.16,3.98-6.41c0,0,0.01,0,0-0.01
				c0.95-2.37,1.47-4.96,1.47-7.68c0-4.14-1.21-8-3.29-11.24c-0.18-0.37-0.43-0.62-0.65-0.95c0-0.01,0-0.02-0.02-0.02l-1.23-1.54
				c0.28-0.07,0.58-0.1,0.88-0.1c0.48,0,0.94,0.08,1.37,0.24c1.63,0.57,2.8,2.14,2.8,3.97c0,0.04,0,0.09-0.01,0.13
				c0.01,0.01,0.01,0.01,0,0.02C52.92,21.06,54.36,26.17,54.36,31.65z"/>
		</g>
		<g>
			<path class="st1" d="M48.85,78.76H36.83c-1.86,0-3.88-0.62-5.69-1.76c-1.17-0.73-2.42-1.41-3.73-2.01
				c-0.19-0.09-0.39-0.17-0.59-0.26l0,3.45c0,0.28-0.28,0.55-0.55,0.55H1.85c-0.54,0-1.06-0.24-1.41-0.65s-0.5-0.96-0.41-1.5
				l5.59-33.07c0.14-0.81,0.83-1.4,1.65-1.4h19c0.28,0,0.55,0.28,0.55,0.55v3.98c9.24-5.96,14.73-16.02,14.73-27.06
				c0-0.41-0.01-0.76-0.02-1.11c-0.01-0.38-0.05-0.7-0.1-1.03c-0.09-0.67-0.18-1.36-0.03-2.02c0.44-1.98,2.83-3.31,4.78-3.31
				c1.31,0,2.55,0.49,3.51,1.38c0.03,0.03,0.06,0.06,0.08,0.1c0.56,0.89,1.03,1.74,1.45,2.6c2.36,4.67,3.56,9.73,3.56,15.03
				c0,2.18-0.21,4.37-0.63,6.5c-0.08,0.41-0.17,0.82-0.26,1.22c-0.03,0.11-0.06,0.27-0.1,0.43c0.09,0,0.18,0,0.28,0h15.56
				c2.9,0,5.26,2.36,5.26,5.27c0,1.4-0.55,2.72-1.55,3.71c-0.59,0.59-1.29,1.02-2.05,1.27c1.55,0.92,2.59,2.61,2.59,4.54
				c0,1.4-0.55,2.72-1.55,3.71c-0.75,0.76-1.69,1.26-2.72,1.45c1.61,0.92,2.69,2.6,2.69,4.52c0,1.4-0.58,2.73-1.64,3.72
				c-0.75,0.71-1.45,1.21-3.46,1.43c1.25,0.95,2.05,2.58,2.05,4.46c0,1.39-0.51,2.71-1.44,3.7c-0.93,1-2.17,1.56-3.51,1.56
				L48.85,78.76z M26.32,73.49c0.08,0,0.16,0.02,0.23,0.05c0.4,0.16,0.85,0.35,1.27,0.54c1.35,0.62,2.64,1.31,3.85,2.07
				c1.65,1.04,3.49,1.61,5.16,1.61l27.5,0c1.05,0,2.04-0.44,2.78-1.24c0.76-0.81,1.18-1.88,1.18-3.02c0-2.48-1.57-4.35-3.65-4.35
				l0,0c-0.28,0-0.5-0.22-0.5-0.5c0-0.28,0.22-0.5,0.5-0.5l0,0c0,0,0.01,0,0.01,0c4.03,0,4.65-0.58,5.36-1.26
				c0.85-0.81,1.32-1.87,1.32-3c0-2.35-2.03-4.27-4.53-4.27c-0.27,0-0.49-0.21-0.5-0.48c-0.01-0.27,0.19-0.5,0.46-0.52l1.85-0.16
				c1.18,0,2.25-0.45,3.05-1.25c0.81-0.81,1.26-1.88,1.26-3.01c0-2.35-1.91-4.27-4.26-4.27c-0.28,0-0.5-0.22-0.5-0.5
				s0.22-0.5,0.5-0.5h1c1.13,0,2.2-0.45,3.01-1.25c0.81-0.81,1.25-1.88,1.25-3.01c0-2.35-1.91-4.27-4.26-4.27H54.08
				c-0.16,0-0.3,0-0.45,0.01c-0.3,0.01-0.69,0.07-0.89-0.2c-0.09-0.13-0.12-0.3-0.07-0.45c0.07-0.21,0.19-0.74,0.24-0.96
				c0.11-0.45,0.19-0.84,0.27-1.24c0.41-2.07,0.61-4.19,0.61-6.31c0-5.14-1.16-10.05-3.46-14.58c-0.4-0.82-0.85-1.62-1.37-2.46
				c-0.77-0.69-1.75-1.07-2.79-1.07c-1.53,0-3.48,1.08-3.8,2.52c-0.11,0.49-0.03,1.09,0.05,1.67c0.05,0.36,0.09,0.72,0.1,1.06
				c0.01,0.42,0.02,0.78,0.02,1.13c0,11.73-5.94,22.32-15.88,28.4c-0.15,0.09-0.4,0.1-0.56,0.01c-0.16-0.09-0.29-0.3-0.29-0.49
				v-4.34H7.27c-0.33,0-0.61,0.24-0.67,0.56L1.01,76.75C0.97,77,1.04,77.25,1.2,77.44s0.4,0.3,0.65,0.3h23.98v-3.2
				c-0.07-0.49-0.06-0.77,0.19-0.96C26.1,73.52,26.21,73.49,26.32,73.49z"/>
		</g>
	</g>
	<g>
		<path class="st3" d="M1.1,27.96c-0.33,0.81,0.13,1.73,0.98,1.96l10.73,2.8l-9.64-5.47C2.4,26.8,1.43,27.14,1.1,27.96z"/>
		<path class="st3" d="M10.9,16.67c-0.46,0.58-0.32,1.43,0.32,1.82l7.98,4.86l-6.46-6.76C12.23,16.06,11.37,16.09,10.9,16.67z"/>
		<path class="st3" d="M22.85,8.78c-0.66,0.45-0.77,1.38-0.24,1.98l6.75,7.51l-4.58-9C24.42,8.56,23.51,8.33,22.85,8.78z"/>
		<path class="st3" d="M34.82,1.97c-0.59,0.19-0.87,0.85-0.61,1.41l3.31,7.03l-1.38-7.65C36.02,2.15,35.4,1.78,34.82,1.97z"/>
		<path class="st3" d="M49.62,0c-0.76,0.01-1.33,0.69-1.21,1.43l1.41,9.42l1.07-9.46C50.97,0.64,50.37-0.01,49.62,0z"/>
		<path class="st3" d="M62.71,6.26c-0.59-0.17-1.2,0.23-1.29,0.84l-1.11,7.69l3.06-7.14C63.62,7.08,63.3,6.42,62.71,6.26z"/>
		<path class="st3" d="M78.3,6.81c-0.81-0.51-1.88-0.2-2.28,0.67l-5.08,10.91l7.72-9.23C79.27,8.42,79.1,7.32,78.3,6.81z"/>
		<path class="st3" d="M85.71,20.56c-0.4-0.47-1.12-0.47-1.53-0.01L79,26.35l6.49-4.27C86.01,21.74,86.11,21.02,85.71,20.56z"/>
		<path class="st3" d="M94.83,31.65c-0.32-0.72-1.21-1-1.89-0.58l-8.51,5.24l9.58-2.86C94.77,33.22,95.15,32.37,94.83,31.65z"/>
		<path class="st3" d="M101.67,45.46c-0.13-1.04-1.15-1.72-2.16-1.45L86.77,47.4l13.19,0.02C101,47.42,101.81,46.5,101.67,45.46z"/>
		<path class="st3" d="M94.22,59.9c0.12-0.71-0.42-1.37-1.14-1.39l-9.11-0.29l8.73,2.64C93.39,61.07,94.11,60.62,94.22,59.9z"/>
		<path class="st3" d="M93.82,74.48c0.36-0.73-0.01-1.6-0.78-1.86l-9.7-3.26l8.53,5.65C92.55,75.46,93.46,75.21,93.82,74.48z"/>
		<path class="st3" d="M84.05,87.02c0.59-0.64,0.48-1.65-0.23-2.15l-8.95-6.34l7.02,8.43C82.44,87.64,83.46,87.66,84.05,87.02z"/>
		<path class="st3" d="M70.94,94.98c0.7-0.42,0.88-1.36,0.38-2l-6.35-8.13l4.03,9.49C69.33,95.09,70.23,95.39,70.94,94.98z"/>
		<path class="st3" d="M57.22,99.04c0.75-0.19,1.17-0.99,0.89-1.72l-3.55-9.13l1.08,9.74C55.72,98.71,56.47,99.23,57.22,99.04z"/>
		<path class="st3" d="M42.77,97.35c0.62,0.03,1.12-0.49,1.07-1.1l-0.62-7.75l-1.4,7.64C41.71,96.75,42.16,97.32,42.77,97.35z"/>
	</g>
	<polygon class="st0" points="82.48,34.8 79.37,35.29 78.88,38.4 77.45,35.6 74.35,36.09 76.57,33.87 75.14,31.06 77.94,32.49 
		80.17,30.27 79.68,33.38 	"/>
	<polygon class="st0" points="37.12,21.19 35.12,21.75 35.04,23.83 33.88,22.1 31.88,22.66 33.17,21.03 32.01,19.3 33.96,20.02 
		35.25,18.39 35.17,20.47 	"/>
	<polygon class="st0" points="78.72,70.11 76.72,70.67 76.64,72.75 75.48,71.02 73.48,71.58 74.77,69.95 73.61,68.22 75.57,68.94 
		76.85,67.31 76.77,69.39 	"/>
	<polygon class="st0" points="51.84,86.13 49.44,85.23 47.86,87.23 47.97,84.68 45.58,83.78 48.04,83.1 48.15,80.55 49.56,82.68 
		52.02,82 50.43,84 	"/>
	<polygon class="st0" points="67.29,23.53 65.28,24.09 65.2,26.17 64.05,24.44 62.04,25.01 63.33,23.37 62.18,21.64 64.13,22.36 
		65.42,20.73 65.33,22.81 	"/>
	<polygon class="st0" points="27.21,32.49 25.89,34.1 27.02,35.85 25.08,35.1 23.77,36.71 23.88,34.63 21.94,33.88 23.95,33.35 
		24.07,31.27 25.2,33.02 	"/>
	<polygon class="st0" points="35.52,90.64 32.41,91.13 31.92,94.24 30.49,91.43 27.39,91.93 29.61,89.7 28.18,86.9 30.98,88.33 
		33.21,86.11 32.71,89.21 	"/>
	<polygon class="st0" points="83.63,51.58 82.32,53.19 83.44,54.94 81.5,54.19 80.19,55.8 80.3,53.72 78.36,52.97 80.38,52.44 
		80.49,50.36 81.62,52.11 	"/>
</g>
</svg>
