<?xml version="1.0" encoding="utf-8"?>
<!-- Generator: Adobe Illustrator 23.0.6, SVG Export Plug-In . SVG Version: 6.00 Build 0)  -->
<svg version="1.1" id="Layer_1" xmlns="http://www.w3.org/2000/svg" xmlns:xlink="http://www.w3.org/1999/xlink" x="0px" y="0px"
	 viewBox="0 0 78.68 79.08" style="enable-background:new 0 0 78.68 79.08;" xml:space="preserve">
<style type="text/css">
	.st0{fill:#ECDACF;}
	.st1{fill:#F09C6C;}
	.st2{fill:#ED5B23;}
</style>
<g id="Group_824" transform="translate(-3609.706 -617.915)">
	<g id="Group_811" transform="translate(3621.125 665.934)">
		<path id="Path_853" class="st0" d="M4.86-26.81l7.24,55.39h15.75v-55.39H4.86z"/>
	</g>
	<g id="Group_812" transform="translate(3674.876 665.934)">
		<path id="Path_854" class="st1" d="M-2.91-26.81H-25.9v55.39h15.75L-2.91-26.81z"/>
	</g>
	<g id="Group_813" transform="translate(3640.6 677.988)">
		<path id="Path_855" class="st2" d="M1.74,12.71c-0.44,0-0.82-0.32-0.89-0.76l-7.12-44.61c-0.08-0.49,0.26-0.96,0.75-1.03
			c0.49-0.08,0.95,0.24,1.03,0.73c0,0.01,0,0.01,0,0.02l7.12,44.61c0.08,0.49-0.26,0.96-0.75,1.04C1.84,12.71,1.79,12.71,1.74,12.71
			z"/>
	</g>
	<g id="Group_814" transform="translate(3688.841 677.988)">
		<path id="Path_856" class="st2" d="M-32.99,12.71c-0.05,0-0.1,0-0.14-0.01c-0.49-0.08-0.83-0.54-0.75-1.04l7.12-44.61
			c0.07-0.49,0.53-0.83,1.02-0.75c0.01,0,0.01,0,0.02,0c0.49,0.08,0.83,0.54,0.75,1.03l-7.12,44.61
			C-32.17,12.39-32.54,12.71-32.99,12.71z"/>
	</g>
	<g id="Group_815" transform="translate(3616.895 661.705)">
		<path id="Path_857" class="st2" d="M55.07-22.58l-7.24,55.39h-31.5L9.09-22.58H55.07 M55.07-24.39H9.09c-1,0-1.81,0.81-1.81,1.81
			c0,0.08,0.01,0.16,0.02,0.23l7.24,55.39c0.12,0.9,0.88,1.57,1.79,1.57h31.5c0.91,0,1.68-0.67,1.79-1.57l7.24-55.39
			c0.13-0.99-0.57-1.9-1.56-2.03C55.23-24.38,55.15-24.39,55.07-24.39L55.07-24.39z"/>
	</g>
	<g id="Group_816" transform="translate(3672.762 678.013)">
		<path id="Path_858" class="st2" d="M-24.69-32.83v44.61c0,0.48,0.38,0.87,0.86,0.9v-46.4C-24.31-33.7-24.69-33.31-24.69-32.83z"/>
	</g>
	<g id="Group_817" transform="translate(3674.762 677.993)">
		<path id="Path_859" class="st2" d="M-25.79-33.71c-0.02,0-0.03,0.01-0.05,0.01v46.4c0.02,0,0.03,0.01,0.05,0.01
			c0.5,0,0.9-0.4,0.9-0.9c0,0,0,0,0,0v-44.61C-24.88-33.31-25.29-33.71-25.79-33.71C-25.79-33.71-25.79-33.71-25.79-33.71z"/>
	</g>
	<g id="Group_818" transform="translate(3674.762 643.294)">
		<path id="Path_860" class="st1" d="M-2.53-13.85l-23.31,0.14v7.47l23.35-0.14c2.06-0.03,3.71-1.73,3.68-3.79
			C1.17-12.21-0.49-13.85-2.53-13.85L-2.53-13.85z"/>
	</g>
	<g id="Group_819" transform="translate(3611.707 643.628)">
		<path id="Path_861" class="st0" d="M13.96-13.9c-2.06-0.01-3.74,1.66-3.74,3.72c-0.01,2.06,1.66,3.74,3.72,3.74
			c0.02,0,0.04,0,0.07,0l23.21-0.14v-7.47L13.96-13.9z"/>
	</g>
	<g id="Group_820" transform="translate(3609.706 641.179)">
		<path id="Path_862" class="st2" d="M16.03-3.08c-2.56-0.02-4.62-2.1-4.61-4.67c0.02-2.53,2.05-4.58,4.58-4.61l46.57-0.29h0.03
			c2.56-0.01,4.64,2.06,4.65,4.62c0.01,2.56-2.06,4.64-4.62,4.65l0,0L16.06-3.08L16.03-3.08z M62.6-10.83h-0.02l-46.57,0.29
			c-1.56,0.01-2.82,1.27-2.81,2.83c0,0.75,0.31,1.48,0.85,2.01c0.53,0.54,1.25,0.83,2,0.82l46.57-0.29l0,0
			c1.56-0.02,2.81-1.31,2.79-2.87C65.38-9.58,64.14-10.82,62.6-10.83L62.6-10.83z"/>
	</g>
	<g id="Group_821" transform="translate(3641.011 620.026)">
		<path id="Path_863" class="st0" d="M-0.62-0.54c-3.26,0.01-5.89,2.65-5.9,5.9v4.05c0.08-0.08,5.09,0,5.09,0V5.66
			c0-1.22,0.99-2.2,2.21-2.21h7.13v-3.99L-0.62-0.54z"/>
	</g>
	<g id="Group_822" transform="translate(3674.762 620.026)">
		<path id="Path_864" class="st1" d="M-17.11-0.54h-8.73v3.99h7.33c1.22,0,2.2,0.99,2.21,2.21v3.66c0,0,5.14-0.09,5.09-0.05V5.36
			C-11.22,2.11-13.85-0.53-17.11-0.54z"/>
	</g>
	<g id="Group_823" transform="translate(3638.892 617.915)">
		<path id="Path_865" class="st2" d="M-4.4,12.43c-0.12,0-0.24-0.02-0.35-0.07c-0.34-0.14-0.56-0.47-0.56-0.84V7.48
			c0.01-3.76,3.05-6.8,6.81-6.8h17.26c3.76,0,6.8,3.05,6.81,6.8v3.91c0,0.44-0.31,0.81-0.74,0.89c-0.1,0.02-0.19,0.02-0.29,0.01
			c-0.41-0.01-2.82,0.02-4.95,0.06c-0.24,0.01-0.48-0.08-0.65-0.26c-0.17-0.17-0.27-0.4-0.27-0.65V7.78c0-0.72-0.58-1.3-1.3-1.3H2.9
			c-0.72,0-1.3,0.58-1.3,1.3v3.76c0,0.24-0.1,0.48-0.27,0.65c-0.18,0.15-0.41,0.24-0.65,0.26c-2.11-0.03-4.46-0.05-4.89-0.02
			C-4.28,12.43-4.34,12.44-4.4,12.43z M-3.03,10.58c0.66,0,1.56,0.01,2.81,0.03V7.77c0-1.72,1.39-3.11,3.11-3.11h14.46
			c1.72,0,3.11,1.39,3.11,3.11v2.74c1.53-0.03,2.57-0.05,3.28-0.03v-3c0-2.76-2.24-4.99-5-5H1.5c-2.76,0-4.99,2.24-5,5v3.11
			C-3.35,10.58-3.2,10.58-3.03,10.58L-3.03,10.58z"/>
	</g>
</g>
</svg>
